<?xml version="1.0" encoding="UTF-8"?>
<svg id="Capa_2" data-name="Capa 2" xmlns="http://www.w3.org/2000/svg" viewBox="0 0 352 438.29">
  <defs>
    <style>
      .cls-1 {
        fill: #fff;
      }
    </style>
  </defs>
  <g id="Capa_1-2" data-name="Capa 1">
    <g>
      <path class="cls-1" d="m0,260.58c.57-3.44,1.05-6.9,1.73-10.31.48-2.37,1.16-4.7,1.89-7,1.61-5.08,3.04-10.24,5.34-15.06,2.7-5.65,5.06-11.44,7.54-17.18,4.26-9.87,8.45-19.77,12.65-29.66,2.61-6.15,5.1-12.35,7.78-18.47,2.55-5.83,4.74-11.82,7.58-17.53.22-.45.38-.93.55-1.4.86-2.4.93-2.49,3.42-2.18,3.55.44,6.79,1.75,9.31,4.32,1.29,1.32,1.86,3.17,2.12,5.03.1.73.17,1.49.09,2.22-.36,3.39.47,6.3,2.47,9.19,2.25,3.24,2.35,7.26,2.31,11.14-.05,5.34-1.38,10.44-2.7,15.58-.98,3.85-2.17,7.61-3.55,11.32-1.88,5.08-4.15,9.99-6.42,14.91-1.02,2.2-2.19,4.3-3.44,6.36-1.28,2.09-1.46,4.54-2.4,6.75-2.76,6.55-3.48,13.49-3.18,20.54.27,6.37,2.55,11.86,6.83,16.69,5.32,6,10.25,12.34,15.46,18.43,3.99,4.65,8.15,9.16,12.26,13.7,3.77,4.17,7.58,8.3,11.36,12.46,1.15,1.27,2.43,2.38,3.95,3.16,1.86.95,3.28.16,3.52-1.92.24-2.12-.09-4.16-1-6.1-1.51-3.19-3.28-6.2-5.57-8.9-4.39-5.16-8.36-10.65-12.59-15.93-5.74-7.16-11.23-14.53-17.32-21.42-2.82-3.19-5.16-6.76-6.08-11.1-2.08-9.73,5.06-14.36,13.1-13.5,4.7.5,8.75,2.72,12.46,5.52,7.18,5.42,12.97,12.3,19.39,18.51,5.41,5.23,10.65,10.64,15.96,15.99,6.13,6.17,12.22,12.37,18.37,18.52,7.86,7.86,15.75,15.71,23.66,23.53,4.39,4.34,8.23,9.09,11.24,14.5,3.32,5.99,5.6,12.34,6.91,19.05.21,1.08.53,2.14.95,3.21.52-1.83.81-3.7,1.21-5.53,1.33-5.94,3.66-11.49,6.54-16.79,2.38-4.37,5.48-8.3,9-11.85,16.88-16.96,33.78-33.9,50.68-50.84,8-8.02,15.97-16.08,24.02-24.04,3.57-3.54,7.62-6.54,12.35-8.32,5.57-2.09,11.08-2.21,15.88,2.07,2.7,2.41,2.99,5.66,2.45,8.87-.89,5.36-3.95,9.59-7.54,13.57-3.08,3.43-5.84,7.14-8.7,10.77-3.91,4.96-7.88,9.88-11.63,14.96-4.43,6-9.74,11.36-13.34,17.95-1.3,2.38-2.02,4.95-1.36,7.72.48,2,1.27,2.33,3.22,1.61,2.62-.97,4.09-3.21,5.86-5.08,4.25-4.49,8.41-9.08,12.53-13.7,6.61-7.42,13.13-14.93,19.45-22.6,2.61-3.17,5.24-6.34,7.8-9.55,2.54-3.19,3.59-6.96,4.15-10.93.48-3.34.46-6.67.01-9.99-.48-3.57-1.27-7.07-2.16-10.57-1.7-6.66-5.42-12.4-8.17-18.58-1.59-3.58-2.88-7.29-4.5-10.85-3.12-6.83-5.07-14.04-6.21-21.37-.94-6.04-1.16-12.28,1.88-18.03.18-.35.32-.76.6-1,1.89-1.66,1.91-3.83,1.82-6.09-.08-2.2-.28-4.5.71-6.52,1.7-3.47,4.44-5.76,8.38-6.38.89-.14,1.85-.09,2.66-.42,1.83-.75,2.54.12,3.07,1.69,2.05,6.06,4.97,11.76,7.42,17.65,2.56,6.16,5.46,12.19,7.87,18.4,1.66,4.28,3.45,8.51,5.32,12.68,3.32,7.38,6.41,14.85,9.53,22.3,3.51,8.39,7.74,16.5,10.39,25.23,1.15,3.78,2.27,7.58,2.97,11.51.39,2.2.94,4.39,1.24,6.63.05.37.33.57.66.7v10.61c-1.06,1.14-.83,2.66-1.13,4.01-2.09,9.23-6.13,17.64-11.03,25.63-4.47,7.29-10.04,13.77-16,19.9-2.93,3.02-6.02,5.88-8.93,8.91-7.89,8.2-15.58,16.57-22.78,25.39-4.51,5.52-8.88,11.15-13.05,16.93-4.66,6.46-9,13.13-13.04,19.99-3.33,5.64-6.14,11.53-8.75,17.54-3.2,7.36-5.43,14.96-6.61,22.89-.31,2.08-1.52,3.62-2.98,5.13-1.15,1.19-2.77,1.42-3.9,2.49h-43.14c-3.44-.97-6.85-1.9-10.02-3.71-6.74-3.82-11.07-9.49-13.57-16.68-.5-1.43-.76-2.95-1.16-4.55-.25.27-.44.39-.46.52-.79,5.48-3.08,10.29-6.74,14.38-5.11,5.69-11.42,9.38-19.17,9.53-13.17.25-26.36.1-39.53.11-.79,0-1.66.15-2.36-.12-3.73-1.41-6.02-4.03-6.6-8.08-1.32-9.2-4.63-17.8-8.33-26.23-3.38-7.71-7.75-14.9-12.25-21.99-7.54-11.9-16.21-22.98-25.32-33.69-5.61-6.59-11.58-12.88-17.38-19.31-4.83-5.36-10.4-9.97-15.09-15.48-5.27-6.19-10.04-12.67-14.05-19.75-3.46-6.11-5.79-12.6-7.68-19.3-.32-1.14-.21-2.41-.93-3.44,0-3.31,0-6.62,0-9.93Z"/>
      <path class="cls-1" d="m136.96,0c.82,1.19,2.22,1.48,3.41,1.91,5.27,1.91,9.86,4.85,14.3,8.25,3.98,3.04,7.13,6.73,9.84,10.81,2.63,3.97,4.71,8.23,6.15,12.86,1.9,6.15,3.1,12.32,3,18.75-.04,2.8-.17,2.78-2.74,1.85-4.32-1.56-8.43-3.62-12.22-6.11-3.72-2.44-7.27-5.24-10.31-8.63-4.14-4.63-7.61-9.71-9.49-15.57-2.43-7.58-3.79-15.4-2.64-23.44.03-.22.01-.46.02-.68.23,0,.46,0,.68,0Z"/>
      <path class="cls-1" d="m285.27,129.45c-.19,8.4-1.73,18.59-4.48,28.58-1.16,4.22-2.38,8.45-3.9,12.55-3.51,9.44-7.76,18.53-12.69,27.35-3.16,5.66-6.71,11.05-10.34,16.38-3.38,4.97-7.18,9.65-11.08,14.23-4.59,5.39-9.19,10.75-14.27,15.7-7.22,7.03-14.77,13.67-22.62,20-9.11,7.35-18.61,14.12-28.42,20.48-1,.65-1.81.6-2.66.07-1.84-1.17-3.6-2.47-5.44-3.63-5.5-3.49-10.66-7.46-15.91-11.32-5.98-4.41-11.66-9.17-17.28-14-6.29-5.41-12.16-11.29-17.92-17.27-6.11-6.34-11.72-13.13-17-20.15-5.21-6.94-9.8-14.31-14.13-21.85-3.16-5.5-5.94-11.17-8.36-17.02-1.76-4.26-3.25-8.62-4.73-12.99-5.38-15.82-7.78-32.07-6.91-48.77.56-10.76,2.81-21.1,8.09-30.61,3.64-6.57,8.54-12.07,14.49-16.71,4.21-3.28,8.73-5.99,13.58-8.09,5.4-2.34,10.92-4.31,16.81-5.28,3.32-.55,6.6-1.14,9.96-1.01,5.67.23,11.14,1.32,16.52,3.25,10.18,3.64,18.04,10.1,23.95,19,1.7,2.56,3.24,5.26,4.44,8.12.25.59.43,1.5,1.2,1.48.71-.02.68-.92.94-1.46,4.87-9.92,11.43-18.35,21.28-23.81,9.07-5.03,18.76-7.31,29.14-6.41,5.05.44,9.8,2.12,14.59,3.61,5.92,1.84,11.45,4.5,16.63,7.91,6.56,4.32,12.25,9.56,16.35,16.3,3.75,6.16,6.59,12.73,8.11,19.86,1.65,7.78,2.33,15.61,2.07,25.51Zm-109.1-23.94c-1.72-3.59-3.51-6.9-5.72-10.05-2.89-4.14-6.45-7.47-10.61-10.11-4.05-2.56-8.52-4.24-13.26-5.27-4.44-.97-8.9-1.39-13.32-.55-7.94,1.51-15.55,3.98-22.43,8.44-7,4.54-12.59,10.36-16.34,17.81-3.45,6.85-4.84,14.26-5.4,21.85-1.02,13.79,1.42,27.11,5.47,40.2,1.65,5.32,3.81,10.49,6.29,15.44,3.34,6.67,6.82,13.29,11.18,19.41,4.83,6.79,9.73,13.49,15.5,19.53,5.45,5.71,10.92,11.37,16.88,16.56,5.33,4.64,10.72,9.18,16.5,13.25,4.15,2.92,8.26,5.88,12.45,8.74,1.34.92,2.63,2.15,4.56.74,4.55-3.32,9.26-6.43,13.85-9.71,4.26-3.05,8.23-6.48,12.28-9.8,8.55-7.02,16.33-14.81,23.66-23.05,3.37-3.79,6.34-7.9,9.4-11.95,5.32-7.04,9.69-14.64,13.54-22.53,4.73-9.71,8.44-19.76,10.52-30.46,1.08-5.53,1.62-11.07,2.16-16.63.41-4.29-.11-8.58-.57-12.89-.52-4.88-1.4-9.57-3.21-14.13-1.24-3.11-2.58-6.2-4.37-8.97-3.79-5.85-8.89-10.48-14.85-14.09-3.94-2.39-8.18-4.18-12.59-5.58-6.68-2.11-13.4-3.14-20.43-1.96-8.64,1.45-16.08,5.04-22.05,11.51-3.83,4.16-7.12,8.67-9.08,14.23Z"/>
      <path class="cls-1" d="m206.7,27.39c-.96,4.16-1.96,8.91-4.68,13.24-3.87,6.17-9.4,10.06-15.95,12.62-2.02.79-4.19,1.46-6.43,1.72-1.28.15-1.67-.07-1.41-1.36.54-2.76,1.03-5.57,2.19-8.1,1.64-3.55,3.38-7.09,6.17-9.97,3.76-3.86,8.06-6.87,13.19-8.6,1.69-.57,3.47-.84,5.17-1.43,1.46-.51,1.8-.16,1.75,1.88Z"/>
    </g>
  </g>
</svg>