<?xml version="1.0" encoding="UTF-8"?>
<svg id="Capa_2" data-name="Capa 2" xmlns="http://www.w3.org/2000/svg" viewBox="0 0 423 527.19">
  <defs>
    <style>
      .cls-1 {
        fill: #3aaa35;
      }

      .cls-1, .cls-2 {
        stroke: #3aaa35;
        stroke-miterlimit: 10;
      }

      .cls-3 {
        fill: #e30613;
      }

      .cls-4 {
        fill: #ed711d;
      }

      .cls-5, .cls-2 {
        fill: #efaf80;
      }

      .cls-6 {
        fill: #063;
      }
    </style>
  </defs>
  <g id="Capa_1-2" data-name="Capa 1">
    <g>
      <path class="cls-4" d="m126.85,319.67c.14.14.29.29.43.43.12.13.24.27.36.4,0,0,.05.05.05.05,0,.24.13.35.37.33,0,0,.06.06.06.06,1.03,1.41,1.81,3.07,3.66,3.65,0,0,.04.04.04.04.15.66.35,1.27,1.22,1.2.21.21.43.43.64.64.13.13.26.26.39.38.15.14.29.29.44.43.13.13.26.26.39.39,0,0,.02.03.02.03.13.13.26.26.39.39.09.06.16.14.22.23,1.06,2.08,2.69,3.6,4.73,4.71,0,0,.02.02.02.02.12.13.25.27.37.4.15.15.29.29.44.44.13.13.26.25.39.38,0,0,.03.03.03.03.13.13.26.26.39.38.21.21.41.42.62.64,0,.41.25.57.62.61.07.07.14.14.2.23-.06,1.12.86,1.33,1.59,1.71.86.22,1.43.74,1.64,1.63.14.11.29.22.43.33,0,0,.07.07.07.07-.02.24.1.36.33.38,0,0,.05.05.05.05,0,.24.13.36.38.33,0,0,.07.07.07.07-.02.25.09.36.34.34,0,0,.06.06.06.06.04.47.3.74.78.79,0,0,.05.05.05.05,0,.26.12.38.38.37.14.14.28.28.42.43.07,1.01.57,1.6,1.62,1.62,0,0,.05.05.05.05-.02.27.09.38.36.35,0,0,.06.05.06.05-.08.61.2.86.79.79.21.21.43.42.64.63.13.13.26.26.38.39.15.15.29.29.44.44.13.13.26.26.39.38.21.21.42.43.63.64.7,1.2,1.22,2.58,2.84,2.86,0,0,.05.05.05.05-.03.27.09.38.35.35,0,0,.06.05.06.05-.08.61.2.86.79.79.75.77,1.51,1.54,2.26,2.31.09.73.5,1.14,1.25,1.18.07.07.14.15.2.23-.04.85.38,1.25,1.22,1.24.09.05.16.12.23.19.11.55.4.93.98,1.02,0,0,.04.03.04.03.07.46.32.73.79.78,0,0,.05.05.05.05-.02.25.09.37.35.35,0,0,.06.06.06.06-.03.25.1.37.34.39,0,0,.04.04.04.04.02.25.14.36.39.33,0,0,.06.06.06.06,0,.26.12.38.38.37.28.28.56.56.84.84,0,.27.13.4.4.4.14.14.28.28.42.42.35,1.57,1.66,2.18,2.89,2.86.21.21.43.43.64.64.13.13.26.25.38.38.49.49.97.98,1.46,1.46.53,1.38,1.31,2.51,2.87,2.87.14.14.28.28.42.42-.06.61.21.87.81.81.62.62,1.25,1.25,1.87,1.87.13.13.25.25.38.38.08.07.16.15.22.23.78,1.67,2.02,2.89,3.66,3.71,0,0,.02.02.02.02.06.37.28.54.64.56.08.07.14.15.19.24,0,.25.12.39.38.38,0,0,.04.04.04.04.08,1,.59,1.55,1.62,1.59,0,0,.04.05.04.05.44,1.18,1.37,1.89,2.41,2.49.14.14.27.27.41.41.04.5.3.78.81.81,0,0,.04.04.04.04.07.22-.06.63.43.44.1.11.21.21.31.32-.2.47.17.42.43.47,0,0,.02.02.02.02.11.16.22.31.33.47,0,0,0,0,0,0,.2.97.88,1.55,1.67,2.04h0c.38,1.31,1.13,2.32,2.36,2.96.04.1.1.19.17.27.13.13.27.27.4.4,0,0,.03.04.03.04-.12.9.29,1.45,1.13,1.71,5.62,8.83,9.63,18.29,11.25,28.69.29,1.87.16,3.83,1.26,6.01.47-2.86.85-5.27,1.26-7.67.8-4.65,2.64-9.02,3.85-13.56.02-.25.04-.51.06-.76.4-.13.71-.34.91-.75,1.52-3.18,2.78-6.49,4.99-9.29.26-.33.26-.77-.03-1.14.02-.11.08-.19.18-.24,1.04.05.89-.7.9-1.35,0,0,.02-.03.02-.03.71-.14,1.36-.33.87-1.28.06-.12.15-.21.27-.27,1.92-.99,3.08-2.59,3.76-4.59,0,0,.04-.04.04-.04.52-.03.74-.33.77-.82.17-.25.33-.5.5-.74.46-.11.78-.34.77-.87l.02-.02c.53,0,.77-.29.79-.8,0,0,.03-.03.03-.03.13-.14.26-.27.39-.41.14-.14.27-.28.41-.41,1.13-.16,1.49-1.01,1.74-1.95h0c.41.06.64-.12.69-.53,0,0,.03-.03.03-.03.26,0,.38-.12.37-.37,0,0,.04-.04.04-.04.25,0,.38-.11.37-.37,0,0,.04-.04.04-.04.26,0,.38-.12.36-.37,0,0,.03-.03.03-.03.87-.48,1.78-.92,2.03-2.02,0,0,.04-.04.04-.04.26.01.37-.11.36-.37,0,0,.05-.05.05-.05.25.01.37-.11.36-.36,0,0,.05-.05.05-.05.82.03,1.21-.37,1.2-1.19,0,0,.05-.04.05-.04.26,0,.37-.12.35-.37,0,0,.06-.05.06-.05.25.02.37-.1.37-.36,0,0,.05-.05.05-.05.25.01.37-.11.36-.36,0,0,.05-.05.05-.05.25,0,.37-.11.37-.36,0,0,.05-.05.05-.05.25,0,.38-.11.37-.36,0,0,.05-.04.05-.04.25,0,.38-.11.37-.37,0,0,.03-.03.03-.03,2.59-1.65,4.69-3.79,6.34-6.37.15-.15.29-.29.44-.44,2.08-1.05,3.55-2.72,4.71-4.7,0,0,.04-.04.04-.04.25,0,.37-.11.36-.36,0,0,.05-.05.05-.05.25.01.37-.11.36-.36,0,0,.05-.05.05-.05.25.01.37-.11.36-.36,0,0,.05-.05.05-.05.25.01.37-.11.36-.36,0,0,.04-.04.04-.04.72-.35,1.54-.6,1.61-1.61,0,0,.05-.05.05-.05.26.02.37-.1.35-.36,0,0,.06-.06.06-.06.25.02.37-.1.36-.36,0,0,.06-.05.06-.05.25.02.37-.1.36-.36,0,0,.05-.05.05-.05,1.29-.06,1.51-1.19,2.02-2.03,0,0,.04-.04.04-.04.25.02.38-.1.36-.36,0,0,.05-.05.05-.05.26.01.38-.11.36-.36,0,0,.05-.05.05-.05.26.01.38-.11.36-.36,0,0,.05-.05.05-.05.26,0,.39-.12.38-.38.06-.09.13-.17.21-.24,2.03-.97,3.55-2.46,4.5-4.51.56-.56,1.11-1.11,1.67-1.67,2.09-1.19,3.82-2.74,4.91-4.92.07-.07.16-.14.24-.2.25,0,.38-.13.38-.38,0,0,.05-.05.05-.05.26.02.38-.1.36-.36,0,0,.05-.05.05-.05.26.02.38-.11.36-.36,0,0,.05-.05.05-.05.26.02.37-.1.35-.36,0,0,.04-.05.04-.05.64-.16,1.06-.55,1.2-1.21,0,0,.04-.04.04-.04.58.06.83-.2.78-.78,0,0,.05-.05.05-.05.25.01.37-.1.36-.36,0,0,.06-.06.06-.05.25.01.37-.1.36-.36,0,0,.05-.05.05-.05,1.3-.06,1.52-1.18,2.01-2.03,0,0,.05-.04.05-.04.26.03.38-.09.36-.35,0,0,.05-.05.05-.05.26.02.38-.1.35-.36,0,0,.06-.06.06-.06.26.03.38-.09.35-.35,0,0,.06-.06.06-.06.26.03.38-.09.35-.35,0,0,.04-.04.04-.04,2.05-1.09,3.71-2.58,4.7-4.72.14-.14.29-.29.43-.43.69-.12,1.1-.52,1.22-1.22.14-.14.29-.29.43-.43,2.15-.98,3.61-2.66,4.73-4.68,0,0,.04-.04.04-.04.25.01.37-.11.35-.36,0,0,.06-.06.06-.06.25.01.37-.11.35-.35,0,0,.06-.06.06-.06.25.01.37-.1.35-.35,0,0,.06-.06.06-.06.25.01.36-.11.35-.35,0,0,.05-.05.05-.05.82-.53,1.98-.71,2.02-2.02,0,0,.05-.05.05-.05.26.02.38-.1.36-.36,0,0,.05-.05.05-.05,1.41-.07,1.71-1.26,2.23-2.22.12-.17.24-.33.36-.5.66-.14,1.18-.43,1.27-1.18.14-.14.29-.28.43-.43,2.06-.95,3.56-2.45,4.51-4.51.35-.35.71-.69,1.06-1.04.26.02.39-.1.37-.37,0,0,.06-.06.06-.06.26.03.37-.09.35-.35,0,0,.05-.05.05-.05,1.03-.59,2.29-.94,2.44-2.42,0,0,.05-.05.05-.05.83.04,1.23-.35,1.19-1.18,0,0,.04-.04.04-.04.67-.13,1.04-.56,1.2-1.2,0,0,.05-.05.05-.05.25.02.36-.1.35-.35,0,0,.07-.07.07-.07.25.02.36-.1.34-.35,0,0,.07-.07.07-.07.25.01.36-.1.35-.35,0,0,.07-.06.07-.06.25.02.36-.1.35-.35,0,0,.05-.05.05-.05,1.96-1.18,3.64-2.64,4.68-4.73.14-.14.29-.28.43-.42,1.79-1.34,3.72-2.52,4.92-4.5.23-.19.46-.38.69-.57.46-.02.88-.09.96-.67,5.59-4.31,11.6-7.54,18.95-7.05,3.58.24,6.83,1.41,9.43,4.03,1.47,1.81,2.03,4.05,2.92,6.14,0,0,.03.03.03.03.1.16.2.32.3.48.37,7.96-3.71,14.03-8.6,19.64-2.58,2.97-5.09,5.98-7.51,9.08-6.24,8-12.49,16.01-18.74,24-3.98,5.09-7.97,10.17-11.95,15.26-.52.1-.61.5-.65.93,0,0-.09.11-.09.11-.69.57-1.32,1.17-1.48,2.11-.15.29-.31.59-.46.88-.42.12-.37.45-.36.77-.16.29-.31.59-.47.88-1.28,1.85-1.71,3.94-1.59,6.13.07,1.34-.4,2.9,1.17,3.81.33.36.65.73.98,1.09,1.82.69,3.01-.3,4.09-1.56.08-.06.17-.11.27-.16,2.4-1.14,4.07-3.03,5.34-5.31,0,0,.03-.03.03-.03,1.46-.9,2.67-2.02,3.32-3.65.27-.28.54-.56.81-.84.14-.14.28-.27.41-.41,3.22-3.6,6.45-7.19,9.65-10.8,8.06-9.08,16.08-18.19,23.74-27.6,3.75-4.6,7.73-9.02,11.06-13.94,1.99-2.94,2.67-6.41,3.27-9.81,1.23-7.07.24-14.09-1.29-20.98-1.53-6.92-4.02-13.53-7.48-19.79-2.82-5.1-5.24-10.41-7.19-15.91-.77-2.15-1.01-4.54-2.77-6.25-1.65-5.21-3.73-10.28-4.74-15.7-.66-3.54-1.94-6.97-1.88-10.64-.02-.25-.05-.5-.07-.74-.07-.67-.13-1.33-.2-2,.23-.2.21-.37-.05-.53,0-1.06,0-2.11-.01-3.17.26-.18.25-.36,0-.53,0-.37,0-.75.01-1.12.38-.42.35-.88.13-1.36.05-.39.09-.79.14-1.18.03-.23.05-.46.08-.68.44-4.59,2.57-8.44,5.28-12.04.71-3.15.16-6.35.34-9.52.15-4.01,4.47-8.85,8.81-9.81,2.04-.45,4.1-.78,6.15-1.2,1.2-.25,1.73.33,2.1,1.38,2.7,7.62,6.29,14.87,9.38,22.33,3.04,7.34,6.52,14.5,9.39,21.9,2,5.14,4.17,10.2,6.39,15.22,2.64,5.97,5.12,12.01,7.7,18,2.08,4.83,4.06,9.71,6.11,14.56.97,2.29,2.22,4.46,2.92,6.86.77,2.16,1.57,4.3,2.81,6.26,3.23,7.43,5.83,15.06,7.47,23.02.7,3.42,1.78,6.77,2.03,10.29.03.44.4.68.79.84v2.88c-.49.19-.45.62-.45,1.02-.02,2.91-.03,5.83-.05,8.74-.53,2.94-.99,5.9-1.98,8.74-.82,2.48-1.64,4.95-2.45,7.43-1.98,5.99-5.02,11.47-8.22,16.87-2.32,2.62-4.06,5.61-5.65,8.71l-.04.03c-.97.75-2.17,1.34-1.98,2.88l-.04.05c-.88.15-1.14.81-1.27,1.57-.08.08-.15.16-.22.25-.83.33-1.29.93-1.43,1.81-.14.13-.28.26-.42.39-.52.04-.77.35-.81.85-.06.1-.09.2-.09.31-.1.16-.2.32-.31.48,0,0-.04.04-.04.04-.12.09-.62-.15-.3.34-3.83,4.44-7.71,8.83-12.08,12.75-.14.14-.28.28-.42.42-.27.27-.55.54-.82.81-1.1.28-1.78.97-2.07,2.06-.27.27-.54.55-.81.82-.14.14-.28.28-.42.42-.14.13-.27.27-.41.4-.15.12-.3.25-.45.37h0c-.59.03-.74.41-.74.91l-.4.41c-.78.04-1.2.44-1.24,1.23h0c-1.39.41-1.91,1.64-2.59,2.71l-.04.04c-.48.05-.73.33-.77.8-1.01,1.02-2.07,1.99-3.02,3.06-4.58,5.16-9.11,10.36-13.69,15.51-2.81,3.17-5.59,6.36-8.02,9.83-.5.07-.73.37-.75.85-.13.14-.27.29-.4.43-.13.15-.25.3-.38.45-.29.26-.58.52-.87.78-.69.96-1.74,1.67-2.02,2.91.02.13,0,.24-.1.34-1.59.8-2.36,2.31-3.21,3.75h0c-.29.02-.41.18-.36.46-1.94,2.66-3.93,5.29-5.81,7.99-3.93,5.65-7.8,11.34-11.47,17.17-4.82,7.63-9.23,15.46-12.94,23.68-3.03,6.71-5.59,13.6-7.67,20.67-1,2.94-1.99,5.88-1.76,9.06l-.11.72c-.6,1.68-1.19,3.37-1.79,5.05l-.48.79c-.43.13-.98.15-.76.86-1.36,1.86-3.59,2.45-5.38,3.69h-.82c-.49-.75-1.25-.4-1.88-.4-15.35-.03-30.7-.03-46.05-.03-.51,0-1.12-.25-1.45.42h-1.65c-4.13-1.17-8.23-2.29-12.05-4.46-8.1-4.59-13.3-11.41-16.31-20.05-.6-1.72-.91-3.53-1.36-5.3-.17-.01-.34-.03-.51-.04.03,2.15-.98,4-1.44,6-.91,4-3.15,7.36-5.58,10.46-3.74,4.78-8.55,8.43-14.24,10.7-2.86,1.14-5.91,1.74-8.97,2.22-.33-.49-.84-.35-1.31-.35-16.02,0-32.04,0-48.07,0-.47,0-.97-.12-1.32.35-1.76-.54-3.28-1.55-4.86-2.45-.02-.61-.19-1.09-.92-1.12l-.03-.03c-2.21-3.78-2.56-8.07-3.44-12.22-.14-.65.02-1.59-.98-1.83-.54-3.46-1.81-6.71-2.92-10-1.14-3.4-2.5-6.73-3.76-10.09.16-2.46-1.2-4.21-2.74-5.87-3.95-8.39-8.67-16.36-13.64-24.16-9.7-15.24-20.86-29.4-32.65-43.06-5.72-6.63-11.73-13-17.61-19.5-.13-.15-.26-.3-.39-.45-.13-.14-.26-.28-.39-.42-.14-.14-.28-.27-.42-.41-.13-.14-.27-.27-.4-.41-1.46-2.6-3.93-4.28-5.9-6.41-.67-.72-1.2-1.71-2.38-1.78-3.16-3.18-6.21-6.45-9.2-9.8-6.54-7.35-12.16-15.29-17.03-23.85-4.2-7.39-6.94-15.28-9.29-23.36-.38-1.3-.29-2.73-1.05-3.94v-9.05c.71-2.56,1.44-5.11.79-7.8.42-2.33.85-4.67,1.27-7,1.24-1.88,1.58-3.99,1.64-6.18.16-.81.32-1.62.47-2.43.23-.1.35-.26.26-.52.04-.24.09-.49.13-.73,1.26-2.34,2.25-4.77,2.46-7.45.42-2.33,1.81-4.3,2.43-6.56.12-.16.24-.31.36-.47.06-.1.09-.21.08-.33,2.03-2.26,2.9-5.05,3.6-7.91.16-.53.32-1.05.48-1.58,2.19-2.17,2.71-5.12,3.65-7.87,1.17-3.06,2.02-6.29,3.58-9.14,1.88-3.44,2.91-7.18,4.57-10.69,2.51-5.33,4.73-10.79,7.03-16.21,3.5-8.25,7-16.5,10.41-24.79,1.31-3.19,3.16-6.14,4.1-9.48.12-.16.24-.32.36-.47.06-.1.09-.21.08-.33,1.61-1.42,1.96-3.51,2.71-5.34.98-2.41,2.59-4.61,2.71-7.35.69-.8.93-1.84,1.08-2.78.34-2.17,1.6-2.42,3.44-2.24,4.61.45,8.75,2.07,11.92,5.41,1.49,1.57,2.23,3.82,2.43,6.09-.03,2.67-.06,5.34-.07,8.01,0,.61-.09,1.27.63,1.59,0,0,.12.14.12.14.03.31.19.52.5.61,2.57,3.33,3.96,7.13,4.43,11.28.01,3.49.21,6.99-.28,10.48.28,4.57-1.7,8.7-2.57,13.04-.99,4.91-2.64,9.66-4.47,14.32-1.7,4.34-3.58,8.61-5.37,12.92-.71.16-.91.83-1.15,1.34-1.39,2.86-2.71,5.76-4.06,8.65-1.01,2.43-2.63,4.63-2.93,7.35-1.32,1.57-2.14,3.31-1.93,5.42,0,0-.01.04-.01.04-.56.24-.63.78-.76,1.27-1.21,3.5-1.09,7.25-2.07,10.8-.33,1.21-.15,2.56-.21,3.84-.28.14-.33.3-.04.48,0,.25-.01.5-.02.75-.46,1.12-.51,2.24-.02,3.37,0,.38.01.77.02,1.15-.35.32-.34.62.05.9.31,5.79,1.68,11.36,5.15,16.01,2.87,3.85,6.13,7.43,9.16,11.18,4.01,4.96,8.33,9.67,12.34,14.65,3.56,4.42,7.46,8.57,11.25,12.81,3.11,3.49,6.28,6.94,9.42,10.4.25.83.8,1.37,1.62,1.63.58.66,1.17,1.31,1.75,1.97-.06.28.08.42.34.48.41.43.82.85,1.22,1.28.27.82.79,1.38,1.64,1.62.41.43.83.85,1.24,1.28-.07.7.38.94.95,1.07,0,0,.01.01.01.01.02.26.16.39.41.4.14.13.28.26.41.39.04.26.18.39.44.39.09.05.18.12.26.19.09.32.32.44.64.45,0,0,.13.11.13.11,1.37,1.11,2.66,2.62,4.61.97.2-.23.4-.46.6-.69.69-.27.72-.81.56-1.42.02-1.34.03-2.68.05-4.02.2-3.5-1.63-6.11-3.75-8.59-.11-.16-.22-.32-.33-.47,0-.95-.45-1.59-1.32-1.95,0,0-.03-.03-.03-.03-1-2.31-2.45-4.27-4.51-5.74-.27-.28-.54-.56-.81-.84-.08-.24.04-.66-.47-.48-.12-.07-.21-.17-.27-.3.52-1.01-.27-1.08-.9-1.28-.13-.14-.27-.28-.4-.42.12-1.18-.77-1.88-1.4-2.6-1.63-1.84-2.65-4.21-4.84-5.55-3.81-4.84-7.51-9.76-11.44-14.5-4.33-5.21-8.25-10.74-12.86-15.72-3.41-3.68-6.1-7.89-7.67-12.72.08-.26.25-.54.21-.78-.65-3.92-.4-7.75,1.12-11.45,2.29-2.89,5.32-4.49,8.91-5.11,1.7.05,3.41.22,5.1-.14.21.03.43.06.64.1.17.02.35.04.52.06,5.57,1,10.37,3.58,14.72,7.11.88,1.54,2.24,2.47,3.87,3.05,0,0,.06.06.06.06-.04.26.08.38.34.34,0,0,.06.05.06.05,0,.42.27.55.64.56,0,0,0,0,0,0,.93,1.66,2.15,3.04,3.83,3.98.5.47,1,.94,1.49,1.41.13.54.38.95,1.02.94,0,0,.09.1.09.1-.11.87.48,1.04,1.14,1.14,0,0,.09.09.09.09.21.83.7,1.38,1.56,1.56,0,0,.12.11.12.11-.08.26,0,.36.27.27,0,0,.11.12.11.12.62,1.51,1.82,2.45,3.21,3.2,0,0,.07.08.07.08-.05.44.22.56.59.57h0c1.36,2.06,2.92,3.92,5.1,5.17.96.97,1.92,1.93,2.88,2.9.61,1.3,1.33,2.48,2.85,2.87,0,0,.05.05.05.05-.03.26.08.38.35.35,0,0,.06.06.06.06-.02.26.1.36.35.33,0,0,.08.08.08.08-.03.26.09.38.35.38Z"/>
      <path class="cls-1" d="m191.65,17.85c2.12,2.69,4.52,5.21,6.29,8.12,2.9,4.77,5.55,9.67,7.16,15.13.78,2.64,1.36,5.27,1.89,7.94.31,1.42.04,2.98,1.09,4.21.03.39.06.77.09,1.16-.23,3.58.04,7.15.42,10.71-.02.25-.04.5-.05.75-1.38.42-2.46-.57-3.71-.76-.66-.1-1.19-1.07-1.98-.3-7.76-3.05-14.57-7.63-20.93-12.92-.11-.14-.22-.28-.33-.42-.88-.92-1.76-1.84-2.65-2.76-.3-1.32-1.17-2.1-2.39-2.54,0,0,0,0,0,0-.03-1.19-.79-1.85-1.73-2.38,0,0-.01-.01-.01-.01.01-.52-.28-.77-.75-.87,0,0,0,0,0,0-.76-1.87-1.51-3.74-3.23-4.99,0-.11-.04-.22-.1-.32.01-.59-.09-1.12-.78-1.29,0-.11-.02-.23-.07-.33.08-.56-.18-.85-.73-.92-3.6-8.27-5.58-16.91-5.83-25.94-.08-2.88.14-5.74.44-8.59h.82c.98,1.17,2.38,1.59,3.72,2.09,6.49,2.44,12.5,5.7,17.7,10.35.35.31.77.54,1.16.8.08.83.65,1.05,1.36,1.09.56.53,1.12,1.07,1.68,1.6,0,.97.73,1.18,1.45,1.41Z"/>
      <path class="cls-5" d="m242.77,527.19c.33-.67.93-.42,1.45-.42,15.35,0,30.7,0,46.05.03.63,0,1.39-.35,1.88.4h-49.38Z"/>
      <path class="cls-5" d="m.79,308.71c.64,2.69-.08,5.25-.79,7.8,0-.96,0-1.92,0-2.88.26-1.64.53-3.28.79-4.92Z"/>
      <path class="cls-5" d="m423,324.33c-.17-.04-.33-.08-.5-.12.02-2.91.03-5.83.05-8.74,0-.4-.04-.83.45-1.02v9.88Z"/>
      <path class="cls-3" d="m325.99,221.97c-.03.11-.06.21-.12.31-1.43,2.03-2.49,4.25-3.26,6.61.02.13-.02.24-.12.34-.25.07-.37.22-.3.49-.17.39-.34.78-.51,1.17-.51.25-.87.6-.77,1.23-.14.28-.28.57-.41.85-.56.25-.96.59-.76,1.29.03.13,0,.25-.08.35-.85.42-1.15,1.16-1.21,2.05h-.01c-.26.07-.4.21-.33.49.01.13-.02.24-.09.35-.83.43-1.14,1.16-1.22,2.04-2.88,5.75-6.6,10.97-10.23,16.24-3.32,4.83-6.84,9.51-10.53,14.08-3.3,4.09-6.66,8.12-10.15,12.05-2.99,2.39-5.47,5.25-7.68,8.35-.06.09-.14.17-.21.25-.63.15-1.02.54-1.17,1.18-.08.08-.16.15-.25.21-.57,0-.85.27-.82.85-1.1,1.09-2.19,2.19-3.29,3.28-1.84,1.15-3.47,2.52-4.66,4.37l-.03.03c-.83.25-1.37.78-1.63,1.61-6.08,5.5-12.33,10.79-18.7,15.96-10.92,8.85-22.33,16.97-34.12,24.6-1.28.82-2.26.78-3.36.11-2.19-1.32-4.21-2.91-6.35-4.27-6.61-4.19-12.81-8.94-19.1-13.59-8.99-6.63-17.44-13.87-25.74-21.32-.24-.22-.5-.4-.76-.6-1.25-2.06-2.89-3.71-5.01-4.87-.55-.54-1.1-1.09-1.65-1.63-1.6-2.52-3.65-4.59-6.19-6.17-.13-.14-.27-.27-.4-.41-.59-1.59-1.75-2.63-3.21-3.38-.08-.07-.14-.14-.21-.22,0-.74-.49-.91-1.1-.94-.42-.3-.76-.66-.86-1.2-.1-.12.13-.59-.34-.32-5.41-5.61-10.27-11.68-15.03-17.83-9.27-11.98-17.29-24.76-24.15-38.26-2.93-5.76-5.52-11.69-7.66-17.8-.57-1.63-1.19-3.24-1.79-4.86.3-.27.29-.57.16-.92-2.4-6.77-4.28-13.69-5.92-20.68-.09-.39-.42-.51-.72-.65-.03-.83-.64-1.57-.41-2.45.55-1.22,0-2.26-.53-3.3-.03-.22-.06-.45-.09-.67-.15-3.4-.64-6.74-1.51-10.03-.02-.25-.03-.49-.05-.74.11-.75.38-1.51-.32-2.14-.06-.92-.11-1.83-.17-2.75.19-.88.41-1.77-.2-2.59-.04-.94-.08-1.88-.13-2.82.23-.88.25-1.75-.03-2.62-.02-.34-.03-.68-.05-1.02.31-1.05.32-2.1,0-3.15.02-.48.03-.95.05-1.43.29-.87.25-1.74.04-2.61.06-2.15.11-4.3.17-6.45.21-.14.59-.27.61-.43.28-2.52.96-5,.8-7.57.22-1.58.44-3.17.66-4.75,1.35-2.16,1.92-4.54,1.98-7.07.13-.41.25-.83.38-1.24,2.09-2.05,2.27-4.93,3.24-7.47.06-.1.09-.21.08-.33.7-.18.71-.75.75-1.31.07-.1.09-.21.07-.33,1.28-.93,1.72-2.3,1.99-3.76,0,0,.01,0,.01,0,1.19-.62,1.78-1.63,1.94-2.93,0,0,.04-.05.04-.05.97-.29,1.33-.98,1.28-1.94,0,0,.02-.03.02-.03.64-.2,1.41-.3.88-1.29.06-.12.15-.2.27-.26,1.29-.13,1.44-1.18,1.71-2.13,0,0,.03-.03.03-.03.12-.13.25-.26.37-.4,0,0,.02-.03.02-.03,1.04-.32,2.01-.73,2.02-2.06.45-.51.91-1.02,1.36-1.54,1.97-1.43,4.06-2.73,5.38-4.87,4.97-4.11,10.34-7.54,16.31-10.08,1.51-.64,3.2-.97,4.54-2.03.34-.01.72.07,1.01-.05,5.18-2.04,10.62-3.22,15.95-4.79.13-.01.26-.02.39-.03,2.06-.39,4.22-.27,6.18-1.18,1.76-.04,3.52-.09,5.28-.13.17.01.35.03.52.04,1.9.15,3.81.31,5.71.46.39.55.88.44,1.39.21.22.04.44.08.67.12,1.74.65,3.5,1.22,5.37,1.32,7.76,1.62,14.77,4.89,21.02,9.76.79.62,1.56,1.27,2.33,1.91.24.64.64,1.06,1.37,1.05.42.4.83.8,1.25,1.2,0,.28.15.42.42.41.4.42.8.83,1.21,1.25.01.28.15.42.43.41.27.27.55.54.82.81.77,1.77,2.1,3.06,3.58,4.23.07.08.12.17.17.26-.02.26.1.41.36.45,0,0,.01.01.01.01.02.83.57,1.28,1.21,1.66,0,0,0,0,0,0-.05.5.18.81.66.93,0,0,.03.06.03.06.02.68.33,1.18.91,1.53,1.4,2.94,3.56,5.48,4.51,8.66-.01.86.47,1.56.82,2.29.3.6.94.91,1.18.14.43-1.37,1.66-2.5,1.33-4.11,3.95-8.05,9.26-15.11,15.96-21.05,4.1-3.63,8.88-6.27,13.83-8.58,3.24-1.51,6.52-2.85,10.11-3.29.53-.09,1.07-.16,1.6-.26,6.36-1.22,12.72-1.97,19.24-1.12,2.83.37,5.54,1.43,8.43,1.33,4.77,1.4,9.61,2.58,14.17,4.58,6.4,2.8,12.68,5.84,18.12,10.35.62.51,1.26,1,1.89,1.5.85,1.24,1.84,2.31,3.32,2.82,0,0,.04.04.04.04,1.04,1.55,2.07,3.1,3.88,3.89,1.09,1.29,2.19,2.57,3.27,3.87,3.59,4.38,5.88,9.52,8.42,14.51,0,.34.01.68.38.85,0,0,0,0,0,0-.03.46-.01.91.41,1.22,0,0,0,.01,0,.01.42,1.89.54,3.89,2.02,5.38.77,3.17,1.55,6.34,2.29,9.51.12.51.11,1.06.16,1.59.05,2.66.38,5.28,1.19,7.82.07.92.14,1.84.21,2.75-.19.76-.4,1.51.21,2.19.04.8.08,1.6.12,2.4-.24,3.19-.2,6.38-.03,9.57-.03.81-.07,1.61-.1,2.42-.68,1.49-.39,3.04-.31,4.57-.03.4-.06.79-.08,1.19-.38.28-.34.71-.39,1.11-.5,3.58-.95,7.17-1.52,10.75-.93,5.86-2.44,11.6-3.81,17.37-2.09,9.55-5.9,18.5-9.62,27.48-.65.59-1.04,1.3-1,2.21Zm-161.32,57.41l.03.03c0,.25.13.38.38.38l.03.03c0,.25.13.37.38.36l.05.04c0,.25.12.37.39.32l.08.07c-.04.26.08.37.33.36l.06.06c-.02.26.1.37.36.32l.08.08c-.04.26.07.37.33.32l.07.07c.82,1.2,1.51,2.54,3.14,2.85,1.06.85,2.03,1.8,3.05,2.7,6.17,5.42,12.49,10.65,19.17,15.44,5.71,4.1,11.38,8.26,17.31,12.06,1.65,1.06,2.73.62,3.95-.23,5.52-3.8,11.04-7.62,16.52-11.49,4.87-3.44,9.39-7.32,14.03-11.05,1.11.18,1.37-.69,1.74-1.42.35-.34.71-.68,1.06-1.02.49.03.89-.07.97-.65l1.29-1.23c.12-.13.25-.26.37-.39.07-.09.15-.15.26-.18,1.44-.27,2.18-1.35,2.88-2.48l.42-.38c.97-.11,1.53-.65,1.67-1.61v-.02c.49-.06.82-.26.8-.81l.03-.03c.51-.01.77-.29.79-.79l.04-.03c.51.01.82-.21.86-.74h0c.4.06.63-.11.67-.52l.04-.04c.39.01.55-.22.6-.57.22-.2.44-.39.66-.59.27-.01.4-.15.41-.42.27-.27.55-.54.82-.81,1.59-.61,2.71-1.69,3.3-3.3.14-.13.27-.27.41-.4.28,0,.41-.14.41-.41l.62-.66c1.5-.98,2.86-2.1,3.52-3.85,5.63-6.16,10.81-12.67,15.78-19.38,6.8-9.17,12.31-19.04,17.32-29.25,6.03-12.27,10.02-25.17,12.62-38.55.9-4.62.74-9.36,1.64-13.97.54-.54.53-1.1.08-1.69.05-1.34.1-2.68.14-4.03.33-.45.29-.91.04-1.37-.06-1.33-.12-2.66-.18-3.99.44-.59.47-1.15-.1-1.68-.48-2.74-.57-5.52-.92-8.26-.79-6.18-2.88-11.99-5.46-17.69-2.69-5.94-6.33-11.13-10.94-15.59-6.1-5.9-13.33-10.1-21.23-13.19-3.33-1.3-6.78-2.19-10.22-3.06-3.81-.96-7.73-1.67-11.65-1.39-3.29.24-6.63.4-9.87,1.21-2.62-.29-4.88.71-7.06,1.98-13.07,5.58-21.86,15.31-27.44,28.28-.75-1.57-1.5-3.14-2.26-4.71-.29-1.34-.57-2.68-1.95-3.39h0c-.13-.15-.25-.29-.38-.44-.42-1.25-1.44-2.09-2.14-3.14-4.19-6.25-9.65-10.94-16.45-14.26-5.63-2.75-11.37-4.78-17.63-5.24-.36-.52-.84-.41-1.33-.26-.23,0-.47-.02-.7-.02-2.1-.17-4.21-.62-6.27.26-3.09.14-6.05.91-9,1.74-3.14.2-6.17.71-8.71,2.79-4.27,1.49-8.24,3.58-12.02,6.07-5.54,3.65-10.51,7.93-14.39,13.32-3.35,4.65-6.2,9.58-7.81,15.19-1.21,4.23-2.4,8.43-2.81,12.82-.55,1.76-.96,3.54-.69,5.41-.01.26-.02.52-.03.78-.51.52-.53,1.07-.09,1.65-.03.67-.05,1.33-.08,2-.55,2.22-.5,4.44-.02,6.67.03.8.06,1.6.09,2.39-.43.58-.44,1.15.08,1.68.02.39.03.77.05,1.16-.22,2.27-.01,4.5.75,6.66.02.25.04.51.06.76l.05.54c.03.2.05.4.08.6-.23.51-.19.98.18,1.41-.06,1.31.52,2.5.75,3.75,1.68,9.24,4.28,18.22,7.6,27,.63,3.5,2.51,6.49,4.03,9.6,1.85,3.79,3.49,7.71,6.04,11.12.07.09.12.2.16.31-.07.62.22,1.03.75,1.29v.02c.09.15.17.3.25.45.08.1.15.21.2.33.08.75.33,1.38,1.06,1.74l.06.1c.05.98.41,1.79,1.29,2.31l.02.03c.06.88.42,1.59,1.22,2.03l.02.02c-.04.86.58,1.24,1.18,1.63l.04.04c-.02.34,0,.66.41.77l.02.02c.15.96.77,1.58,1.54,2.09.07.09.13.19.16.3-.06.51.19.8.65.93.07.1.12.22.13.35-.03.52.25.78.74.86l.04.04c-.08.87.59,1.2,1.15,1.61.09.11.13.23.12.37-.04.54.27.76.74.86l.05.05c.11.74.29,1.44,1.18,1.62.34.5.68.99,1.03,1.49,3.94,5.58,8.55,10.62,13.08,15.71,1.16,2.1,2.87,3.67,4.82,5.02l.04.04c.13.64.54,1.01,1.14,1.21.21.22.42.45.64.67.13.96.68,1.51,1.64,1.66h0c.3,1.08.91,1.85,2.09,2l.02.03c0,.26.13.38.38.38Z"/>
      <path class="cls-6" d="m242.42,49.52c0,.12-.03.23-.1.33-.25.07-.38.21-.3.49,0,0,0,.01,0,.01-1.59,1.71-3.48,3.16-4.43,5.39,0,0-.06.06-.06.06-.51,0-.71.34-.85.75-5.82,5.47-12.82,8.49-20.6,9.85-1.33,0-1.94-.46-1.39-1.9.17-.45-.02-1.03-.04-1.56,0-.96.83-1.76.56-2.78.97-1.05,1.52-2.25,1.27-3.72.44-2.61,2.02-4.73,3.24-6.96,3.44-6.3,8.56-10.92,14.97-14.12,0,0,.03.18.03.18l-.03-.17c0-.11.05-.19.15-.23,2.09-.27,4.03-.87,5.53-2.47,1.48-.31,2.97-.61,4.45-.92.62.2.98-.18,1.32-.6.24-.03.48-.07.72-.1,1.99.44,1.02,2.07,1.3,3.2.01,2.32-1.1,4.37-1.64,6.55-1.36,2.9-2.72,5.8-4.09,8.7Z"/>
      <path class="cls-5" d="m282.74,69.98c-2.89.11-5.6-.96-8.43-1.33-6.52-.85-12.88-.1-19.24,1.12-.53.1-1.07.17-1.6.26.55-1.2,1.78-.91,2.69-1.11,8.48-1.88,16.96-1.74,25.39.38.46.11.96.16,1.19.68Z"/>
      <path class="cls-5" d="m336.61,192.27c1.37-5.77,2.88-11.51,3.81-17.37.57-3.57,1.02-7.16,1.52-10.75.06-.4,0-.83.39-1.11.54,2.46-.23,4.83-.57,7.21-.98,7.01-2.33,13.96-4.28,20.79-.16.54-.24,1.07-.88,1.24Z"/>
      <path class="cls-5" d="m216.76,407.37c-1.21,4.54-3.05,8.9-3.85,13.56-.41,2.4-.79,4.8-1.26,7.67-1.1-2.18-.97-4.14-1.26-6.01,1.1.53.46,1.74,1.13,2.77.33-2.57.73-4.89,1.29-7.18.77-3.2,1.86-6.29,2.93-9.39.19-.55.29-1.24,1.03-1.42Z"/>
      <path class="cls-5" d="m83.95,182.77c.31.14.63.26.72.65,1.64,6.99,3.52,13.91,5.92,20.68.13.35.14.66-.16.92-2.05-4.89-3.77-9.89-4.84-15.09-.5-2.4-1.44-4.69-1.64-7.16Z"/>
      <path class="cls-5" d="m144.44,69.23c-5.33,1.56-10.77,2.75-15.95,4.79-.3.12-.67.03-1.01.05,3.68-1.9,7.61-3.09,11.62-4.05,1.75-.42,3.45-1.32,5.34-.79Z"/>
      <path class="cls-5" d="m53.15,175.87c-.12,2.73-1.73,4.93-2.71,7.35-.74,1.83-1.1,3.93-2.71,5.34.05-1.8.95-3.33,1.65-4.9,1.17-2.63,2.5-5.2,3.76-7.79Z"/>
      <path class="cls-5" d="m222.69,395.42c.29.37.29.81.03,1.14-2.21,2.81-3.47,6.12-4.99,9.29-.2.41-.51.62-.91.75,1.42-4.01,3.48-7.68,5.87-11.19Z"/>
      <path class="cls-5" d="m278.21,290.24c2.21-3.11,4.69-5.97,7.68-8.35-2.11,3.2-4.67,5.98-7.68,8.35Z"/>
      <path class="cls-5" d="m66.34,287.83c-1.52,3.7-1.77,7.53-1.12,11.45.04.24-.14.52-.21.78-1.34-3.8-1.11-7.54.46-11.23.19-.44.31-.91.87-1.01Z"/>
      <path class="cls-5" d="m59.71,264.72c1.34-2.89,2.67-5.79,4.06-8.65.25-.51.44-1.18,1.15-1.34-1.18,3.22-2.68,6.29-4.25,9.33-.21.4-.55.58-.96.66Z"/>
      <path class="cls-5" d="m96.98,343c2.19,1.34,3.21,3.71,4.84,5.55.64.72,1.53,1.42,1.4,2.6-2.22-2.61-4.61-5.09-6.24-8.15Z"/>
      <path class="cls-2" d="m208.59,65.11c-.39-3.56-.65-7.12-.42-10.71.69,3.55,1.32,7.1.42,10.71Z"/>
      <path class="cls-5" d="m249.02,366.81c-1.65,2.58-3.75,4.72-6.34,6.37,1.73-2.51,3.86-4.61,6.34-6.37Z"/>
      <path class="cls-5" d="m112.25,362.66c2.12,2.48,3.95,5.09,3.75,8.59-1.25-2.86-2.5-5.73-3.75-8.59Z"/>
      <path class="cls-5" d="m81.42,166.32c.87,3.29,1.36,6.63,1.51,10.03-1.27-3.23-1.55-6.6-1.51-10.03Z"/>
      <path class="cls-6" d="m242.42,49.52c1.36-2.9,2.72-5.8,4.09-8.7-.33,3.39-1.66,6.3-4.09,8.7Z"/>
      <path class="cls-5" d="m145.18,290.25c2.54,1.58,4.59,3.65,6.19,6.17-2.4-1.72-4.43-3.8-6.19-6.17Z"/>
      <path class="cls-5" d="m13.5,269.12c-.71,2.86-1.58,5.65-3.6,7.91.73-2.85,2.02-5.45,3.6-7.91Z"/>
      <path class="cls-5" d="m307.67,377.08c-1.56-.91-1.09-2.47-1.17-3.81-.12-2.19.31-4.28,1.59-6.13.54,1.01-.32,1.75-.57,2.56-.76,2.5-.67,4.93.14,7.38Z"/>
      <path class="cls-5" d="m273.69,342.1c-1.09,2.19-2.82,3.73-4.91,4.92,1.14-2.14,2.98-3.57,4.91-4.92Z"/>
      <path class="cls-5" d="m293.66,322.18c-1.12,2.02-2.58,3.7-4.73,4.68,1.11-2.03,2.79-3.49,4.73-4.68Z"/>
      <path class="cls-5" d="m318.35,371.15c-1.27,2.28-2.94,4.16-5.34,5.31,1.67-1.88,3.26-3.83,5.34-5.31Z"/>
      <path class="cls-5" d="m17.63,259.67c-.94,2.75-1.46,5.7-3.65,7.87,1.05-2.7,1.98-5.46,3.65-7.87Z"/>
      <path class="cls-5" d="m88.4,109.47c-.97,2.54-1.15,5.42-3.24,7.47.78-2.62,1.54-5.25,3.24-7.47Z"/>
      <path class="cls-5" d="m213.57,102.95c.33,1.61-.9,2.74-1.33,4.11-.24.77-.88.46-1.18-.14-.36-.73-.83-1.42-.82-2.29,1.18,1.42,2.06,1.45,2.6-.52.11-.42.48-.78.73-1.16Z"/>
      <path class="cls-5" d="m286.86,328.93c-.99,2.15-2.64,3.64-4.7,4.72,1.28-1.85,2.72-3.56,4.7-4.72Z"/>
      <path class="cls-5" d="m106.64,86.18c-1.33,2.14-3.41,3.44-5.38,4.87,1.28-2.19,3.22-3.65,5.38-4.87Z"/>
      <path class="cls-5" d="m267.11,348.69c-.95,2.05-2.47,3.54-4.5,4.51,1.25-1.75,2.5-3.51,4.5-4.51Z"/>
      <path class="cls-5" d="m119.88,312.65c-2.18-1.25-3.73-3.11-5.1-5.16,2.15,1.28,3.78,3.07,5.1,5.16Z"/>
      <path class="cls-5" d="m254.17,361.68c-1.16,1.98-2.63,3.65-4.71,4.7,1-2.13,2.91-3.36,4.71-4.7Z"/>
      <path class="cls-5" d="m153.01,298.05c2.12,1.16,3.76,2.82,5.01,4.87-1.99-1.3-3.65-2.93-5.01-4.87Z"/>
      <path class="cls-5" d="m319.77,296.01c-1.04,2.09-2.73,3.55-4.68,4.73,1.34-1.8,2.61-3.66,4.68-4.73Z"/>
      <path class="cls-5" d="m82.14,130c.16,2.57-.52,5.05-.8,7.57-.02.16-.4.29-.61.43.59-2.65.21-5.46,1.41-8Z"/>
      <path class="cls-5" d="m342.31,137.93c-.81-2.54-1.14-5.16-1.19-7.82,1.08.59.64,1.66.78,2.53.27,1.75.81,3.49.41,5.29Z"/>
      <path class="cls-5" d="m140.25,333.02c-2.03-1.11-3.66-2.62-4.73-4.71,1.78,1.36,3.64,2.65,4.73,4.71Z"/>
      <path class="cls-5" d="m106.07,354.47c2.06,1.48,3.51,3.43,4.51,5.74-1.67-1.78-3.41-3.51-4.51-5.74Z"/>
      <path class="cls-5" d="m325.12,291.08c-1.2,1.98-3.13,3.17-4.92,4.5,1.08-2.12,2.9-3.42,4.92-4.5Z"/>
      <path class="cls-5" d="m306.6,309.18c-.95,2.06-2.45,3.56-4.51,4.51,1.2-1.81,2.71-3.31,4.51-4.51Z"/>
      <path class="cls-6" d="m237.59,55.74c.95-2.23,2.84-3.69,4.43-5.39-.94,2.24-2.45,4.01-4.43,5.39Z"/>
      <path class="cls-5" d="m7.03,284.39c-.21,2.69-1.21,5.11-2.46,7.45.34-2.64,1.25-5.1,2.46-7.45Z"/>
      <path class="cls-5" d="m84.78,118.18c-.06,2.52-.63,4.9-1.98,7.07.42-2.42.91-4.82,1.98-7.07Z"/>
      <path class="cls-5" d="m322.61,228.88c.77-2.36,1.83-4.58,3.26-6.61-.53,2.48-1.69,4.65-3.26,6.61Z"/>
      <path class="cls-5" d="m351.92,241.14c1.76,1.71,2,4.1,2.77,6.25-1.7-1.74-1.86-4.16-2.77-6.25Z"/>
      <path class="cls-5" d="m267.81,300.38c1.18-1.85,2.81-3.22,4.66-4.37-1.17,1.86-2.7,3.35-4.66,4.37Z"/>
      <path class="cls-5" d="m3.7,295.53c-.05,2.19-.39,4.31-1.64,6.18.12-2.17.36-4.32,1.64-6.18Z"/>
      <path class="cls-5" d="m228.69,387.65c-.68,2-1.84,3.61-3.76,4.59.9-1.82,2.15-3.35,3.76-4.59Z"/>
      <path class="cls-5" d="m412.72,277.43c-1.23-1.95-2.04-4.1-2.81-6.26,1.67,1.76,2.58,3.85,2.81,6.26Z"/>
      <path class="cls-5" d="m77.34,214.45c.5-3.48.29-6.98.28-10.48.71,3.51,1.07,7.02-.28,10.48Z"/>
      <path class="cls-5" d="m324.15,93.15c-1.8-.78-2.84-2.34-3.88-3.89,1.8.79,3.04,2.14,3.88,3.89Z"/>
      <path class="cls-5" d="m358.07,292.97c-.89-2.08-1.45-4.33-2.92-6.14,2.51,1.31,2.92,3.63,2.92,6.14Z"/>
      <path class="cls-6" d="m240.36,32.68c-1.49,1.6-3.44,2.21-5.53,2.47,1.63-1.29,3.55-1.96,5.53-2.47Z"/>
      <path class="cls-5" d="m105.03,297.89c-1.68-.94-2.89-2.32-3.83-3.98,1.7.92,3.04,2.18,3.83,3.98Z"/>
      <path class="cls-2" d="m170.83,37.89c1.71,1.25,2.47,3.12,3.23,4.99-1.53-1.37-2.48-3.11-3.23-4.99Z"/>
      <path class="cls-2" d="m202.85,64.8c.78-.78,1.32.2,1.98.3,1.25.19,2.34,1.17,3.71.76-.07,1.13-.91,1.12-1.59.86-1.4-.55-2.73-1.26-4.09-1.91Z"/>
      <path class="cls-5" d="m202.38,91.08c-1.48-1.17-2.81-2.46-3.58-4.23,1.63,1.04,2.84,2.44,3.58,4.23Z"/>
      <path class="cls-5" d="m151.01,68.03c-1.96.91-4.12.79-6.18,1.18,1.88-1.36,4.03-1.26,6.18-1.18Z"/>
      <path class="cls-5" d="m338.66,119.01c-1.48-1.49-1.6-3.49-2.02-5.38,1.37,1.53,1.7,3.46,2.02,5.38Z"/>
      <path class="cls-5" d="m169.95,70.04c-1.87-.11-3.63-.67-5.37-1.32,1.89.02,3.83-.14,5.37,1.32Z"/>
      <path class="cls-5" d="m72.58,191.95c-.73-.32-.64-.98-.63-1.59.02-2.67.05-5.34.07-8.01.78,1.6.23,3.31.36,4.96.12,1.54.14,3.09.2,4.64Z"/>
      <path class="cls-5" d="m342.82,154.85c-.17-3.19-.22-6.38.03-9.57.5,3.19.54,6.38-.03,9.57Z"/>
      <path class="cls-5" d="m131.78,324.59c-1.85-.59-2.63-2.25-3.66-3.65,1.54.89,2.69,2.19,3.66,3.65Z"/>
      <path class="cls-5" d="m350.96,181.92c-.19,3.17.37,6.37-.34,9.52-.03-3.18-.57-6.37.34-9.52Z"/>
      <path class="cls-5" d="m100.1,292.89c-1.63-.59-2.99-1.51-3.87-3.05,1.43.84,3.02,1.48,3.87,3.05Z"/>
      <path class="cls-5" d="m185.25,378.12c-1.64-.82-2.88-2.04-3.66-3.71,1.51.95,2.73,2.19,3.66,3.71Z"/>
      <path class="cls-5" d="m54.85,277.48c-.21-2.11.61-3.85,1.93-5.42-.31,1.92-1.17,3.66-1.93,5.42Z"/>
      <path class="cls-5" d="m321.7,367.47c-.65,1.63-1.87,2.75-3.32,3.65.63-1.65,1.92-2.7,3.32-3.65Z"/>
      <path class="cls-5" d="m141.57,286.46c1.46.75,2.62,1.8,3.21,3.38-1.37-.84-2.55-1.87-3.21-3.38Z"/>
      <path class="cls-5" d="m114.12,306.83c-1.38-.75-2.58-1.69-3.21-3.2,1.26.87,2.59,1.68,3.21,3.2Z"/>
      <path class="cls-6" d="m214.65,62.95c.02.52.21,1.11.04,1.56-.55,1.44.06,1.9,1.39,1.9-2.01.84-2.25.68-2.09-1.37.06-.74.1-1.5.66-2.08Z"/>
      <path class="cls-5" d="m320.23,89.23c-1.48-.5-2.47-1.58-3.32-2.82,1.49.49,2.52,1.51,3.32,2.82Z"/>
      <path class="cls-5" d="m197.4,391.48c-1.23-.63-1.98-1.64-2.36-2.96,1.34.55,1.93,1.69,2.36,2.96Z"/>
      <path class="cls-5" d="m114.78,377.39c-1.95,1.64-3.24.14-4.61-.97,1.53.36,2.88,1.58,4.61.97Z"/>
      <path class="cls-5" d="m177.88,370.7c-1.55-.36-2.34-1.49-2.87-2.87,1.33.58,2.15,1.68,2.87,2.87Z"/>
      <path class="cls-5" d="m342.41,161.85c-.09-1.54-.38-3.09.31-4.57.71,1.58.15,3.07-.31,4.57Z"/>
      <path class="cls-2" d="m208.08,53.25c-1.05-1.23-.78-2.79-1.09-4.21,1.3,1.16,1.01,2.73,1.09,4.21Z"/>
      <path class="cls-5" d="m158.11,350.93c-1.63-.27-2.14-1.66-2.84-2.86,1.3.6,2.14,1.66,2.84,2.86Z"/>
      <path class="cls-5" d="m172.53,365.35c-1.23-.68-2.53-1.29-2.89-2.86,1.22.7,2.29,1.54,2.89,2.86Z"/>
      <path class="cls-5" d="m91.29,103.74c-.27,1.46-.71,2.83-1.99,3.76.34-1.43.94-2.71,1.99-3.76Z"/>
      <path class="cls-6" d="m216.48,56.45c.24,1.47-.31,2.66-1.27,3.72-.08-1.41.58-2.57,1.27-3.72Z"/>
      <path class="cls-5" d="m125.61,318.43c-1.52-.39-2.25-1.57-2.85-2.87,1.29.62,2.12,1.7,2.85,2.87Z"/>
      <path class="cls-2" d="m176.55,46.16c1.22.45,2.09,1.23,2.39,2.54-1.07-.59-1.99-1.32-2.39-2.54Z"/>
      <path class="cls-5" d="m310.93,304.9c-.14,1.48-1.41,1.83-2.44,2.42.34-1.28,1.43-1.81,2.44-2.42Z"/>
      <path class="cls-5" d="m190.6,383.5c-1.04-.6-1.97-1.31-2.41-2.49,1.17.47,2.07,1.21,2.41,2.49Z"/>
      <path class="cls-5" d="m312.74,376.61c-1.08,1.26-2.27,2.25-4.09,1.56,1.57.01,2.66-1.21,4.09-1.56Z"/>
      <path class="cls-5" d="m300.04,315.8c-.52.96-.81,2.15-2.23,2.22.57-.91.97-2,2.23-2.22Z"/>
      <path class="cls-5" d="m93.24,100.8c-.16,1.3-.75,2.31-1.94,2.93.39-1.15,1-2.15,1.94-2.93Z"/>
      <path class="cls-5" d="m83.01,177.02c.52,1.04,1.07,2.09.53,3.3-.43-1.06-.84-2.12-.53-3.3Z"/>
      <path class="cls-5" d="m80.48,148.5c.32,1.05.32,2.1,0,3.15-.75-1.05-.75-2.1,0-3.15Z"/>
      <path class="cls-5" d="m260.75,355.09c-.51.84-.73,1.96-2.02,2.03.43-.91.89-1.8,2.02-2.03Z"/>
      <path class="cls-5" d="m280.49,335.33c-.49.85-.71,1.97-2.01,2.03.42-.92.9-1.79,2.01-2.03Z"/>
      <path class="cls-5" d="m80.35,282.57c-1.69.36-3.39.19-5.1.14,1.68-.63,3.38-.56,5.1-.14Z"/>
      <path class="cls-2" d="m174.82,43.77c.93.53,1.7,1.19,1.73,2.38-.69-.71-1.73-1.17-1.73-2.38Z"/>
      <path class="cls-5" d="m195.05,388.52c-.79-.49-1.46-1.07-1.67-2.04,1.01.3,1.6.96,1.67,2.04Z"/>
      <path class="cls-5" d="m97.45,95.09c-.28.95-.42,2-1.71,2.13.2-1.01.83-1.67,1.71-2.13Z"/>
      <path class="cls-5" d="m80.68,158.1c.61.82.4,1.71.2,2.59-.7-.81-.67-1.69-.2-2.59Z"/>
      <path class="cls-5" d="m99.89,92.58c-.01,1.33-.97,1.74-2.02,2.06.27-1.08,1.3-1.42,2.02-2.06Z"/>
      <path class="cls-5" d="m297.36,318.48c-.04,1.31-1.2,1.49-2.02,2.02.28-1.07,1.15-1.54,2.02-2.02Z"/>
      <path class="cls-5" d="m238.12,377.74c-.25,1.1-1.16,1.54-2.03,2.02.22-1.14,1.1-1.6,2.03-2.02Z"/>
      <path class="cls-6" d="m248.14,34.27c-.28-1.13.69-2.77-1.3-3.2,1.92-.12,2.22.6,1.3,3.2Z"/>
      <path class="cls-5" d="m309.39,364.61c.16-.94.79-1.54,1.48-2.11-.06,1.01-.33,1.86-1.48,2.11Z"/>
      <path class="cls-5" d="m234.15,381.55c-.25.94-.61,1.79-1.74,1.95.49-.73.54-1.86,1.74-1.95Z"/>
      <path class="cls-5" d="m342.73,142.88c-.61-.68-.41-1.44-.21-2.19.7.67.75,1.4.21,2.19Z"/>
      <path class="cls-5" d="m105.67,372.13c-.85-.23-1.37-.8-1.64-1.62.96.12,1.42.74,1.64,1.62Z"/>
      <path class="cls-5" d="m316.8,239.52c.08-.87.39-1.61,1.22-2.04.01.93-.08,1.8-1.22,2.04Z"/>
      <path class="cls-5" d="m266.16,302.02c.25-.83.8-1.36,1.63-1.61-.2.88-.76,1.4-1.63,1.61Z"/>
      <path class="cls-5" d="m188.15,380.97c-1.02-.04-1.54-.59-1.62-1.59.77.29,1.31.82,1.62,1.59Z"/>
      <path class="cls-5" d="m151.53,344.35c-1.06-.02-1.55-.61-1.62-1.62.79.29,1.33.82,1.62,1.62Z"/>
      <path class="cls-5" d="m100.73,366.78c-.82-.26-1.37-.8-1.62-1.63.98.1,1.43.73,1.62,1.63Z"/>
      <path class="cls-5" d="m94.56,98.8c.05.96-.31,1.65-1.28,1.94.18-.81.59-1.47,1.28-1.94Z"/>
      <path class="cls-5" d="m81.05,163.44c.7.63.43,1.39.32,2.14-.55-.65-.81-1.34-.32-2.14Z"/>
      <path class="cls-5" d="m325.99,221.97c-.04-.91.35-1.62,1-2.21.09.93-.18,1.7-1,2.21Z"/>
      <path class="cls-5" d="m257.45,358.4c-.07,1-.89,1.26-1.61,1.61.17-.91.85-1.29,1.61-1.61Z"/>
      <path class="cls-5" d="m144.91,337.85c-.74-.38-1.65-.59-1.59-1.71.8.32,1.37.85,1.59,1.71Z"/>
      <path class="cls-5" d="m318.45,236.64c.06-.89.36-1.63,1.21-2.05-.09.87-.21,1.72-1.21,2.05Z"/>
      <path class="cls-2" d="m191.65,17.85c-.72-.23-1.45-.44-1.45-1.41.72.22,1.25.65,1.45,1.41Z"/>
      <path class="cls-5" d="m110.6,360.24c.87.36,1.32,1,1.32,1.95-.73-.45-1.09-1.16-1.32-1.95Z"/>
      <path class="cls-5" d="m51.71,298.04c-.49-1.13-.44-2.25.02-3.37.29,1.12.2,2.25-.02,3.37Z"/>
      <path class="cls-5" d="m204.13,93.46c-.64-.38-1.19-.83-1.21-1.66.8.27,1.17.84,1.21,1.66Z"/>
      <path class="cls-5" d="m276.83,291.67c.15-.63.54-1.03,1.17-1.18.01.8-.38,1.18-1.17,1.18Z"/>
      <path class="cls-5" d="m312.16,303.66c.04.83-.36,1.22-1.19,1.18.17-.62.57-1.01,1.19-1.18Z"/>
      <path class="cls-5" d="m164.29,357.14c-.84.01-1.26-.39-1.22-1.24.64.18,1.01.63,1.22,1.24Z"/>
      <path class="cls-5" d="m240.18,375.68c.02.81-.38,1.22-1.2,1.19.19-.61.57-1.02,1.2-1.19Z"/>
      <path class="cls-2" d="m188.53,14.84c-.71-.04-1.28-.26-1.36-1.09.64.13,1.22.34,1.36,1.09Z"/>
      <path class="cls-5" d="m194.67,82.76c-.74.01-1.13-.41-1.37-1.05.68.05,1.22.3,1.37,1.05Z"/>
      <path class="cls-5" d="m95.47,97.48c.53.99-.25,1.09-.88,1.29-.07-.68.35-1.02.88-1.29Z"/>
      <path class="cls-5" d="m288.5,327.29c-.12.69-.53,1.1-1.22,1.22.06-.75.47-1.16,1.22-1.22Z"/>
      <path class="cls-5" d="m199.14,393.89c-.85-.26-1.25-.81-1.13-1.71.7.36.95,1.01,1.13,1.71Z"/>
      <path class="cls-5" d="m301.67,314.12c-.09.75-.61,1.04-1.27,1.18.07-.77.57-1.08,1.27-1.18Z"/>
      <path class="cls-5" d="m110.41,303.12c-.86-.18-1.35-.73-1.56-1.56.72.32,1.25.83,1.56,1.56Z"/>
      <path class="cls-5" d="m115.95,375.28c.16.61.13,1.14-.56,1.42-.1-.59-.07-1.12.56-1.42Z"/>
      <path class="cls-5" d="m276.79,339.04c-.14.66-.56,1.04-1.2,1.21.11-.69.53-1.07,1.2-1.21Z"/>
      <path class="cls-5" d="m313.4,302.42c-.16.64-.53,1.07-1.2,1.2.12-.68.5-1.1,1.2-1.2Z"/>
      <path class="cls-5" d="m224.66,392.51c.5.96-.16,1.14-.87,1.28.31-.42.28-1.05.87-1.28Z"/>
      <path class="cls-5" d="m80.57,144.45c.2.88.24,1.75-.04,2.61-.37-.88-.4-1.75.04-2.61Z"/>
      <path class="cls-5" d="m80.53,152.67c.28.87.26,1.74.03,2.62-.43-.87-.41-1.74-.03-2.62Z"/>
      <path class="cls-5" d="m223.77,393.83c-.01.64.14,1.4-.9,1.35.08-.6.27-1.12.9-1.35Z"/>
      <path class="cls-5" d="m162.88,355.67c-.75-.04-1.15-.44-1.25-1.18.67.12,1.04.57,1.25,1.18Z"/>
      <path class="cls-5" d="m103.62,351.57c.63.2,1.42.27.9,1.28-.6-.22-.61-.85-.9-1.28Z"/>
      <path class="cls-5" d="m205.73,95.98c-.58-.35-.89-.85-.91-1.53.66.3.98.8.91,1.53Z"/>
      <path class="cls-5" d="m163.91,68.6c-.51.23-1,.34-1.39-.21.54-.44.99-.29,1.39.21Z"/>
      <path class="cls-5" d="m133.04,325.83c-.87.07-1.07-.54-1.22-1.2.64.16,1.03.58,1.22,1.2Z"/>
      <path class="cls-5" d="m108.77,301.48c-.66-.1-1.25-.27-1.14-1.14.55.21.95.57,1.14,1.14Z"/>
      <path class="cls-6" d="m246.13,31.16c-.34.42-.7.79-1.32.6.27-.59.63-.95,1.32-.6Z"/>
      <path class="cls-5" d="m89.23,107.83c-.03.56-.04,1.13-.75,1.31-.07-.62.19-1.05.75-1.31Z"/>
      <path class="cls-5" d="m165.51,358.36c-.59-.09-.87-.48-.98-1.02.65.03.88.46.98,1.02Z"/>
      <path class="cls-5" d="m320.92,232.11c-.09-.63.26-.98.77-1.23,0,.57-.04,1.12-.77,1.23Z"/>
      <path class="cls-5" d="m107.54,300.24c-.64.01-.88-.4-1.02-.94.54.09.94.34,1.02.94Z"/>
      <path class="cls-5" d="m319.74,234.25c-.2-.7.2-1.04.76-1.29.12.65-.21,1.03-.76,1.29Z"/>
      <path class="cls-5" d="m107.86,374.47c-.58-.12-1.02-.37-.95-1.07.56.14.92.46.95,1.07Z"/>
      <path class="cls-5" d="m326.77,289.85c-.08.57-.5.65-.96.67.08-.56.56-.56.96-.67Z"/>
      <path class="cls-5" d="m140.26,285.29c.61.03,1.1.2,1.1.94-.49-.17-.93-.4-1.1-.94Z"/>
      <path class="cls-5" d="m152.79,345.59c-.59.07-.88-.18-.79-.79.45.08.71.35.79.79Z"/>
      <path class="cls-5" d="m54.07,278.8c.14-.5.2-1.03.76-1.27,0,.57.1,1.21-.76,1.27Z"/>
      <path class="cls-5" d="m230.77,385.17c0,.53-.31.76-.77.87-.04-.56.31-.76.77-.87Z"/>
      <path class="cls-5" d="m275.76,292.73c-.03-.58.25-.85.82-.85-.06.49-.32.78-.82.85Z"/>
      <path class="cls-5" d="m191.82,384.72c-.5-.04-.77-.31-.81-.81.43.11.7.38.81.81Z"/>
      <path class="cls-5" d="m204.79,94.39c-.49-.12-.71-.43-.66-.93.48.13.71.42.66.93Z"/>
      <path class="cls-2" d="m174.05,42.89c.47.1.77.35.75.87-.45-.12-.8-.32-.75-.87Z"/>
      <path class="cls-2" d="m169.95,36.28c.68.18.79.7.78,1.29-.52-.28-.67-.77-.78-1.29Z"/>
      <path class="cls-5" d="m308.57,366.26c-.02-.32-.06-.65.36-.77.55.56.08.66-.36.77Z"/>
      <path class="cls-5" d="m277.61,338.23c.06.57-.2.84-.78.78.08-.43.34-.7.78-.78Z"/>
      <path class="cls-5" d="m179.12,371.93c-.6.06-.88-.2-.81-.81.45.09.72.36.81.81Z"/>
      <path class="cls-2" d="m169.16,35.03c.54.07.8.36.73.92-.43-.15-.77-.38-.73-.92Z"/>
      <path class="cls-5" d="m159.37,352.18c-.59.07-.88-.18-.79-.79.45.08.7.35.79.79Z"/>
      <path class="cls-5" d="m336.64,113.61c-.43-.31-.44-.76-.41-1.22.56.26.43.76.41,1.22Z"/>
      <path class="cls-5" d="m149.06,341.89c-.47-.05-.73-.31-.78-.79.45.08.71.34.78.79Z"/>
      <path class="cls-6" d="m236.68,56.55c.14-.41.35-.75.85-.75-.08.48-.4.69-.85.75Z"/>
      <path class="cls-5" d="m345.12,205.34c.23.48.26.94-.13,1.36-.22-.48-.24-.93.13-1.36Z"/>
      <path class="cls-5" d="m231.57,384.36c-.02.51-.25.8-.79.8.13-.39.39-.67.79-.8Z"/>
      <path class="cls-5" d="m166.34,359.17c-.47-.05-.73-.32-.79-.78.44.08.71.33.79.78Z"/>
      <path class="cls-5" d="m310.96,362.39c.04-.43.13-.83.65-.93-.06.42-.12.83-.65.93Z"/>
      <path class="cls-5" d="m229.5,386.79c-.03.49-.25.79-.77.82.14-.39.38-.67.77-.82Z"/>
      <path class="cls-5" d="m101.2,293.91c-.37-.01-.63-.14-.64-.56.35.03.59.19.64.56Z"/>
      <path class="cls-5" d="m143.12,335.92c-.37-.04-.62-.19-.62-.61.35.06.58.23.62.61Z"/>
      <path class="cls-5" d="m104.79,353.14c.51-.18.39.25.47.48-.3-.03-.42-.22-.47-.48Z"/>
      <path class="cls-5" d="m139.06,283.77c.47-.27.24.2.34.32-.11-.11-.23-.21-.34-.32Z"/>
      <path class="cls-5" d="m110.04,376.3c-.31-.01-.54-.14-.64-.45.33-.02.59.07.64.45Z"/>
      <path class="cls-5" d="m336.22,112.39c-.37-.17-.39-.51-.38-.85.43.15.42.49.38.85Z"/>
      <path class="cls-5" d="m185.91,378.71c-.36-.03-.58-.2-.64-.56.36.03.57.21.64.56Z"/>
      <path class="cls-5" d="m234.84,381.02c-.05.41-.28.59-.69.53.14-.3.34-.51.69-.53Z"/>
      <path class="cls-5" d="m192.29,385.2c-.49.19-.36-.22-.43-.44.29,0,.38.2.43.44Z"/>
      <path class="cls-5" d="m73.2,192.7c-.31-.09-.46-.3-.5-.61.42,0,.5.27.5.61Z"/>
      <path class="cls-5" d="m345.34,203.48c-.03.23-.05.46-.08.68-.33-.27-.36-.5.08-.68Z"/>
      <path class="cls-5" d="m193.03,385.99c-.26-.05-.63,0-.43-.47.25.06.43.18.43.47Z"/>
      <path class="cls-5" d="m345.24,214.06c.02.25.05.5.07.74-.37-.21-.45-.46-.07-.74Z"/>
      <path class="cls-5" d="m114.78,307.49c-.37-.01-.63-.14-.59-.57.32.06.53.24.59.57Z"/>
      <path class="cls-5" d="m51.78,300.09c-.39-.28-.4-.58-.05-.9.02.3.03.6.05.9Z"/>
      <polygon class="cls-6" points="234.68 35.38 234.71 35.55 234.68 35.37 234.68 35.38"/>
      <path class="cls-6" d="m242.02,50.34c-.08-.27.05-.42.3-.49-.1.16-.2.32-.3.49Z"/>
      <path class="cls-2" d="m181.58,51.46c.11.14.22.28.33.42-.29,0-.42-.12-.33-.42Z"/>
      <path class="cls-5" d="m156.81,67.93c-.17-.01-.35-.03-.52-.04.2-.26.37-.24.52.04Z"/>
      <path class="cls-5" d="m196.35,84.37c-.28,0-.42-.14-.42-.41.14.14.28.28.42.41Z"/>
      <path class="cls-5" d="m197.98,86.03c-.28,0-.42-.14-.43-.41.14.14.29.28.43.41Z"/>
      <path class="cls-5" d="m202.91,91.79c-.25-.05-.38-.19-.36-.45.12.15.24.3.36.45Z"/>
      <path class="cls-5" d="m97.85,94.67c-.12.13-.25.26-.37.4.12-.13.25-.26.37-.4Z"/>
      <path class="cls-5" d="m47.66,188.88c-.12.16-.24.32-.36.47-.04-.28.11-.41.36-.47Z"/>
      <path class="cls-5" d="m344.98,207.82c.26.17.26.35,0,.53,0-.18,0-.35,0-.53Z"/>
      <path class="cls-5" d="m344.99,211.53c.25.16.27.33.05.53-.01-.18-.03-.35-.05-.53Z"/>
      <path class="cls-5" d="m257.85,357.99c.02.25-.1.37-.35.36.12-.12.24-.24.35-.36Z"/>
      <path class="cls-5" d="m154.64,347.43c-.13-.13-.26-.26-.39-.38.26,0,.38.13.39.38Z"/>
      <path class="cls-5" d="m153.81,346.61c-.13-.13-.26-.26-.38-.39.26,0,.38.13.38.39Z"/>
      <path class="cls-5" d="m166.74,359.57c-.25.02-.36-.11-.35-.35.12.12.23.24.35.35Z"/>
      <path class="cls-5" d="m167.13,360.02c-.24-.02-.36-.14-.34-.39.11.13.22.26.34.39Z"/>
      <path class="cls-5" d="m151.94,344.74c-.27.04-.38-.08-.36-.35.12.12.24.23.36.35Z"/>
      <path class="cls-5" d="m167.56,360.39c-.25.03-.38-.09-.39-.33.13.11.26.22.39.33Z"/>
      <path class="cls-5" d="m255.8,360.04c.01.25-.11.37-.36.36.12-.12.24-.24.36-.36Z"/>
      <path class="cls-5" d="m167.99,360.83c-.25,0-.38-.12-.38-.37.13.12.25.25.38.37Z"/>
      <path class="cls-5" d="m254.97,360.87c.01.25-.11.37-.36.36.12-.12.24-.24.36-.36Z"/>
      <path class="cls-5" d="m254.56,361.28c.01.25-.11.37-.36.36.12-.12.24-.24.36-.36Z"/>
      <path class="cls-5" d="m110.8,303.51c-.27.09-.35-.01-.27-.27.09.09.18.18.27.27Z"/>
      <path class="cls-5" d="m169.23,362.07c-.27,0-.4-.13-.4-.4.13.13.26.27.4.4Z"/>
      <path class="cls-5" d="m149.48,342.31c-.25,0-.38-.11-.38-.37.13.12.25.25.38.37Z"/>
      <path class="cls-5" d="m274.32,341.53c0,.25-.13.38-.38.38.13-.13.26-.25.38-.38Z"/>
      <path class="cls-5" d="m313.8,302.02c.02.25-.1.36-.35.35.12-.12.23-.23.35-.35Z"/>
      <path class="cls-5" d="m278.42,337.41c.01.25-.11.37-.36.36.12-.12.24-.24.36-.36Z"/>
      <path class="cls-5" d="m173.56,366.36c-.13-.13-.26-.25-.38-.38.26,0,.38.12.38.38Z"/>
      <path class="cls-5" d="m322.92,366.22c-.14.14-.28.27-.41.41.14-.14.28-.27.41-.41Z"/>
      <path class="cls-5" d="m261.97,353.87c.02.26-.11.38-.36.36.12-.12.24-.24.36-.36Z"/>
      <path class="cls-5" d="m261.56,354.28c.02.26-.11.38-.36.36.12-.12.24-.24.36-.36Z"/>
      <path class="cls-5" d="m102.81,369.23c-.26-.06-.39-.21-.34-.48.11.16.22.32.34.48Z"/>
      <path class="cls-5" d="m274.73,341.12c.02.26-.1.38-.36.36.12-.12.24-.24.36-.36Z"/>
      <path class="cls-5" d="m275.14,340.71c.02.26-.1.38-.36.36.12-.12.24-.24.36-.36Z"/>
      <path class="cls-5" d="m148.22,341.04c-.25.02-.37-.09-.34-.34.11.11.23.23.34.34Z"/>
      <path class="cls-5" d="m275.55,340.3c.02.26-.1.37-.35.36.12-.12.24-.24.35-.36Z"/>
      <path class="cls-5" d="m147.81,340.63c-.25.03-.37-.08-.38-.33.13.11.25.22.38.33Z"/>
      <path class="cls-5" d="m147.39,340.26c-.23-.02-.35-.14-.33-.38.11.13.22.25.33.38Z"/>
      <path class="cls-5" d="m242.64,373.21c0,.25-.11.38-.37.37.12-.12.24-.24.37-.37Z"/>
      <path class="cls-5" d="m181.37,374.18c-.13-.13-.25-.25-.38-.38.24,0,.37.14.38.38Z"/>
      <path class="cls-5" d="m242.23,373.62c0,.25-.12.37-.37.36.12-.12.24-.24.37-.36Z"/>
      <path class="cls-5" d="m241.81,374.04c0,.25-.11.37-.37.36.12-.12.24-.24.37-.36Z"/>
      <path class="cls-5" d="m108.29,374.88c-.26,0-.4-.14-.41-.4.14.13.28.27.41.4Z"/>
      <path class="cls-5" d="m241.4,374.45c0,.25-.11.37-.36.36.12-.12.24-.24.36-.36Z"/>
      <path class="cls-5" d="m261.15,354.69c.01.25-.11.37-.36.36.12-.12.24-.24.36-.36Z"/>
      <path class="cls-5" d="m240.99,374.86c0,.25-.11.37-.36.36.12-.12.24-.24.36-.36Z"/>
      <path class="cls-5" d="m109.14,375.66c-.26,0-.41-.13-.44-.39.15.13.3.26.44.39Z"/>
      <path class="cls-5" d="m146.98,339.81c-.14-.11-.29-.22-.43-.33.14.11.29.22.43.33Z"/>
      <path class="cls-5" d="m278.01,337.82c.02.25-.1.37-.36.36.12-.12.24-.24.36-.36Z"/>
      <path class="cls-5" d="m81.51,282.73c-.17-.02-.35-.04-.52-.06.2-.23.37-.16.52.06Z"/>
      <path class="cls-5" d="m280.89,334.94c.02.26-.1.38-.36.35.12-.12.24-.24.36-.35Z"/>
      <path class="cls-5" d="m281.29,334.52c.03.26-.09.38-.35.36.12-.12.23-.24.35-.36Z"/>
      <path class="cls-5" d="m9.81,277.36c-.12.16-.24.31-.36.47-.05-.28.1-.42.36-.47Z"/>
      <path class="cls-5" d="m238.93,376.92c.01.25-.11.37-.36.36.12-.12.24-.24.36-.36Z"/>
      <path class="cls-5" d="m238.52,377.33c.01.25-.1.38-.36.37.12-.12.24-.24.36-.37Z"/>
      <path class="cls-5" d="m262.4,353.44c0,.26-.12.39-.38.38.13-.13.25-.26.38-.38Z"/>
      <path class="cls-5" d="m186.49,379.34c-.26,0-.38-.13-.38-.38.13.13.25.26.38.38Z"/>
      <path class="cls-5" d="m281.71,334.11c.03.26-.09.38-.35.35.12-.12.24-.24.35-.35Z"/>
      <path class="cls-5" d="m236.05,379.8c.01.25-.11.38-.36.37.12-.12.24-.25.36-.37Z"/>
      <path class="cls-5" d="m235.65,380.21c.01.26-.11.38-.37.37.12-.12.25-.25.37-.37Z"/>
      <path class="cls-5" d="m235.24,380.62c0,.25-.11.38-.37.37.12-.12.24-.25.37-.37Z"/>
      <path class="cls-5" d="m141.88,334.67c-.13-.13-.26-.26-.39-.38.25,0,.37.14.39.38Z"/>
      <path class="cls-5" d="m158.52,351.33c-.27.03-.38-.08-.35-.35.12.12.24.23.35.35Z"/>
      <path class="cls-5" d="m282.12,333.7c.03.26-.09.38-.35.35.12-.12.24-.24.35-.35Z"/>
      <path class="cls-5" d="m141.47,334.26c-.13-.13-.26-.25-.39-.38.26,0,.39.12.39.38Z"/>
      <path class="cls-5" d="m232,383.92c-.13.14-.26.27-.39.41.13-.14.26-.27.39-.41Z"/>
      <path class="cls-5" d="m140.64,333.44c-.12-.13-.25-.27-.37-.4.26.01.38.15.37.4Z"/>
      <path class="cls-5" d="m258.68,357.17c.02.25-.1.37-.36.36.12-.12.24-.24.36-.36Z"/>
      <path class="cls-5" d="m4.43,292.58c.09.26-.02.42-.26.52.09-.17.17-.35.26-.52Z"/>
      <path class="cls-5" d="m193.38,386.48c-.11-.16-.22-.31-.33-.47.26.06.39.19.33.47Z"/>
      <path class="cls-5" d="m100.5,293.29c-.26.04-.38-.07-.34-.34.11.11.23.22.34.34Z"/>
      <path class="cls-5" d="m135.3,328.09c-.13-.13-.26-.26-.39-.39.25.01.38.14.39.39Z"/>
      <path class="cls-5" d="m134.89,327.68c-.13-.13-.26-.26-.39-.39.26,0,.39.13.39.39Z"/>
      <path class="cls-5" d="m134.06,326.86c-.13-.13-.26-.26-.39-.38.26,0,.38.13.39.38Z"/>
      <path class="cls-5" d="m240.57,375.27c.03.26-.09.38-.35.37.12-.12.23-.25.35-.37Z"/>
      <path class="cls-5" d="m258.27,357.58c.02.25-.1.37-.36.36.12-.12.24-.24.36-.36Z"/>
      <path class="cls-5" d="m197.98,392.15c-.13-.13-.27-.27-.4-.4.13.13.27.27.4.4Z"/>
      <path class="cls-5" d="m358.4,293.48c-.1-.16-.2-.32-.3-.48.26.06.38.21.3.48Z"/>
      <path class="cls-5" d="m51.75,293.92c-.29-.19-.24-.35.04-.48-.01.16-.03.32-.04.48Z"/>
      <path class="cls-5" d="m294.06,321.78c.01.25-.1.37-.35.36.12-.12.24-.24.35-.36Z"/>
      <path class="cls-5" d="m294.47,321.37c.01.25-.1.37-.35.35.12-.12.24-.24.35-.35Z"/>
      <path class="cls-5" d="m294.88,320.95c.01.25-.1.37-.35.35.12-.12.23-.24.35-.35Z"/>
      <path class="cls-5" d="m295.29,320.54c.01.25-.1.37-.35.35.12-.12.23-.24.35-.35Z"/>
      <path class="cls-5" d="m128.06,320.88c-.24.03-.36-.08-.37-.33.12.11.25.22.37.33Z"/>
      <path class="cls-5" d="m127.64,320.5c-.12-.13-.24-.27-.36-.4.12.13.24.27.36.4Z"/>
      <path class="cls-5" d="m318.11,237.13c-.07-.28.07-.42.33-.48-.11.16-.22.32-.33.48Z"/>
      <path class="cls-5" d="m126.85,319.67c-.26,0-.38-.11-.35-.38.12.13.23.25.35.38Z"/>
      <path class="cls-5" d="m126.42,319.21c-.25.04-.37-.07-.35-.33.12.11.24.22.35.33Z"/>
      <path class="cls-5" d="m126,318.83c-.26.03-.38-.09-.35-.35.12.12.23.23.35.35Z"/>
      <path class="cls-5" d="m297.76,318.07c.02.26-.1.38-.36.36.12-.12.24-.24.36-.36Z"/>
      <path class="cls-5" d="m315.03,300.79c.02.25-.1.36-.35.35.12-.12.23-.23.35-.35Z"/>
      <path class="cls-5" d="m314.62,301.2c.02.25-.1.36-.35.35.12-.12.23-.23.35-.35Z"/>
      <path class="cls-5" d="m322.2,229.71c-.07-.26.05-.42.3-.49-.1.16-.2.32-.3.49Z"/>
      <path class="cls-5" d="m308.03,307.78c.02.27-.11.39-.37.37.12-.12.25-.24.37-.37Z"/>
      <path class="cls-5" d="m308.44,307.37c.03.26-.09.37-.35.35.11-.12.23-.23.35-.35Z"/>
      <path class="cls-5" d="m314.21,301.61c.02.25-.1.36-.34.35.11-.12.23-.23.34-.35Z"/>
      <path class="cls-5" d="m255.38,360.45c.01.25-.11.37-.36.36.12-.12.24-.24.36-.36Z"/>
      <path class="cls-5" d="m180.68,526.72c-1.23.05-2.46.15-3.69.15-14.64.01-29.29.01-43.93,0-1.02,0-2.05-.1-3.07-.15.34-.47.85-.35,1.32-.35,16.02,0,32.04,0,48.07,0,.46,0,.97-.14,1.31.35Z"/>
      <path class="cls-5" d="m124.18,523.12c-1.65-1.2-2.29-2.99-2.69-4.86-.64-3.05-1.16-6.13-1.74-9.19,1.01.24.84,1.18.98,1.83.88,4.15,1.23,8.45,3.44,12.22Z"/>
      <path class="cls-5" d="m44.84,394.71c-3.11-2.38-5.72-5.26-8.29-8.19,1.18.07,1.72,1.06,2.38,1.78,1.97,2.13,4.44,3.81,5.9,6.41Z"/>
      <path class="cls-5" d="m409.84,357.25c-1.11,3.4-3.31,6.1-5.65,8.71,1.59-3.09,3.33-6.09,5.65-8.71Z"/>
      <path class="cls-5" d="m303.25,507.02c-.11,3.11-.77,6.12-1.76,9.06-.23-3.18.76-6.12,1.76-9.06Z"/>
      <path class="cls-5" d="m420.52,332.96c-.06,2.73-.71,5.26-2.45,7.43.82-2.48,1.64-4.95,2.45-7.43Z"/>
      <path class="cls-5" d="m113.08,488.99c-1.36-1.75-1.79-3.93-2.74-5.87,1.55,1.66,2.9,3.41,2.74,5.87Z"/>
      <path class="cls-5" d="m301.38,516.8c.15,1.95-.1,3.75-1.79,5.05.6-1.68,1.19-3.37,1.79-5.05Z"/>
      <path class="cls-5" d="m344.72,433.3c-.74,1.53-1.5,3.05-3.21,3.75.85-1.44,1.61-2.95,3.21-3.75Z"/>
      <path class="cls-5" d="m377.38,395.59c-.51,1.24-1.19,2.31-2.59,2.71.68-1.08,1.2-2.3,2.59-2.71Z"/>
      <path class="cls-5" d="m383.93,388.95c-.2,1.18-.87,1.88-2.07,2.06.29-1.09.97-1.78,2.07-2.06Z"/>
      <path class="cls-5" d="m404.15,365.99c-.22,1.26-1.07,2.1-1.98,2.88-.19-1.54,1.01-2.14,1.98-2.88Z"/>
      <path class="cls-5" d="m346.84,430.05c0,1.43-.78,2.34-2.02,2.91.28-1.24,1.33-1.95,2.02-2.91Z"/>
      <path class="cls-5" d="m400.64,370.75c.03,1-.84,1.3-1.43,1.81.13-.87.6-1.48,1.43-1.81Z"/>
      <path class="cls-5" d="m402.13,368.93c-.22.68-.66,1.2-1.27,1.57.13-.76.39-1.41,1.27-1.57Z"/>
      <path class="cls-5" d="m378.63,394.34c-.15.67-.56,1.09-1.24,1.23.03-.79.45-1.19,1.24-1.23Z"/>
      <path class="cls-5" d="m299.11,522.64c.04.54-.29.76-.76.86-.22-.71.32-.73.76-.86Z"/>
      <path class="cls-5" d="m125.13,524.27c-.68-.06-.92-.5-.92-1.12.73.03.9.51.92,1.12Z"/>
      <path class="cls-5" d="m349.24,427.54c-.15.37-.17.86-.75.85.03-.48.26-.78.75-.85Z"/>
      <path class="cls-5" d="m374.75,398.34c-.09.43-.31.74-.77.8.04-.48.29-.75.77-.8Z"/>
      <path class="cls-5" d="m379.77,393.03c-.09.43-.19.86-.74.91,0-.5.16-.88.74-.91Z"/>
      <path class="cls-5" d="m398.79,372.95c-.01.53-.27.83-.81.85.04-.5.29-.81.81-.85Z"/>
      <path class="cls-5" d="m397.55,374.63c-.1.11-.2.22-.3.34-.32-.48.18-.24.3-.34Z"/>
      <path class="cls-5" d="m397.89,374.11c.08.27-.05.42-.31.48.1-.16.2-.32.31-.48Z"/>
      <path class="cls-5" d="m385.17,387.72c-.14.14-.28.28-.42.42.14-.14.28-.28.42-.42Z"/>
      <path class="cls-5" d="m381.05,391.84c-.14.14-.28.28-.42.42.14-.14.28-.28.42-.42Z"/>
      <path class="cls-5" d="m380.23,392.65c-.04.26-.17.4-.45.37.15-.12.3-.25.45-.37Z"/>
      <path class="cls-5" d="m45.67,395.53c-.14-.14-.28-.27-.42-.41.14.14.28.27.42.41Z"/>
      <path class="cls-5" d="m46.45,396.4c-.13-.15-.26-.3-.39-.45.13.15.26.3.39.45Z"/>
      <path class="cls-5" d="m348.08,428.83c-.13.15-.25.3-.38.45.13-.15.25-.3.38-.45Z"/>
      <path class="cls-5" d="m341.51,437.06c-.12.15-.24.31-.36.46-.05-.29.07-.44.36-.46Z"/>
      <path class="cls-5" d="m116.53,210.27c1.76,1.72,2.18,4.14,3.19,6.24,2.07,4.29,3.96,8.67,6.48,12.73.34.55.43,1.13.4,1.75-2.55-3.41-4.2-7.33-6.04-11.12-1.52-3.11-3.4-6.1-4.03-9.6Z"/>
      <path class="cls-5" d="m153.49,97.62c-2.9.93-5.8,1.86-8.71,2.79,2.53-2.08,5.57-2.59,8.71-2.79Z"/>
      <path class="cls-5" d="m153.89,268.37c1.93,1.37,3.71,2.87,4.82,5.02-1.95-1.34-3.66-2.92-4.82-5.02Z"/>
      <path class="cls-5" d="m246.1,96.84c-2.31.81-4.57,1.79-7.06,1.98,2.18-1.27,4.44-2.27,7.06-1.98Z"/>
      <path class="cls-5" d="m107.05,169.55c.98,2.14.85,4.4.75,6.66-.76-2.16-.97-4.39-.75-6.66Z"/>
      <path class="cls-5" d="m260.79,277.35c.55-1.65,1.82-2.58,3.3-3.3-.59,1.61-1.71,2.69-3.3,3.3Z"/>
      <path class="cls-5" d="m265.53,272.57c.68-1.73,2.05-2.84,3.52-3.85-.66,1.75-2.02,2.87-3.52,3.85Z"/>
      <path class="cls-5" d="m107.75,147.81c.36,1.88.03,3.67-.69,5.41-.27-1.87.14-3.64.69-5.41Z"/>
      <path class="cls-5" d="m167.24,281.83c1.46.5,2.24,1.74,3.14,2.85-1.62-.31-2.32-1.65-3.14-2.85Z"/>
      <path class="cls-5" d="m209.35,122.38c-1-.93-1.58-2.1-1.95-3.39,1.38.71,1.66,2.05,1.95,3.39Z"/>
      <path class="cls-5" d="m106.86,157.65c.21,2.22.25,4.45-.02,6.67-.48-2.22-.53-4.45.02-6.67Z"/>
      <path class="cls-5" d="m162.17,276.97c1.16.18,1.8.91,2.09,2-1.19-.15-1.79-.92-2.09-2Z"/>
      <path class="cls-5" d="m168.76,95.62c-2.08.42-4.18.09-6.27.26,2.06-.88,4.17-.42,6.27-.26Z"/>
      <path class="cls-5" d="m250.09,287.21c.66-1.18,1.73-1.88,2.88-2.48-.69,1.13-1.44,2.21-2.88,2.48Z"/>
      <path class="cls-5" d="m133.27,242.1c1.06.29,1.45,1.08,1.54,2.09-.76-.51-1.38-1.13-1.54-2.09Z"/>
      <path class="cls-5" d="m244.39,292.11c.26-.87.9-1.27,1.74-1.42-.37.73-.63,1.6-1.74,1.42Z"/>
      <path class="cls-5" d="m129.08,235.23c1.01.45,1.33,1.28,1.29,2.31-.88-.52-1.24-1.33-1.29-2.31Z"/>
      <path class="cls-5" d="m160.52,275.31c.85.25,1.4.8,1.64,1.66-.96-.15-1.51-.69-1.64-1.66Z"/>
      <path class="cls-5" d="m253.39,284.34c.28-.82.88-1.32,1.67-1.61-.15.96-.7,1.5-1.67,1.61Z"/>
      <path class="cls-5" d="m130.39,237.57c.92.37,1.24,1.1,1.22,2.03-.8-.44-1.15-1.15-1.22-2.03Z"/>
      <path class="cls-5" d="m138.6,249.56c.89.18.98.94,1.18,1.62-.89-.18-1.07-.87-1.18-1.62Z"/>
      <path class="cls-5" d="m131.63,239.63c.94.15,1.13.84,1.18,1.63-.6-.39-1.22-.78-1.18-1.63Z"/>
      <path class="cls-5" d="m127.96,233.4c.8.31,1.03.96,1.06,1.74-.72-.35-.98-.99-1.06-1.74Z"/>
      <path class="cls-5" d="m136.54,246.67c.92.15,1.13.82,1.15,1.61-.56-.41-1.23-.74-1.15-1.61Z"/>
      <path class="cls-5" d="m158.75,273.43c.78.03,1.18.41,1.14,1.21-.59-.2-1.01-.57-1.14-1.21Z"/>
      <path class="cls-5" d="m106.92,166.71c.17.55.49,1.1.08,1.68-.52-.54-.51-1.1-.08-1.68Z"/>
      <path class="cls-5" d="m108,178.12c.64.39.34.91.18,1.41-.38-.43-.42-.9-.18-1.41Z"/>
      <path class="cls-5" d="m126.76,231.31c.65.2.78.7.75,1.29-.53-.27-.82-.68-.75-1.29Z"/>
      <path class="cls-5" d="m137.81,248.66c.39.16.72.38.74.86-.47-.09-.78-.32-.74-.86Z"/>
      <path class="cls-5" d="m247.19,289.66c.11-.54.55-.59.97-.65-.08.58-.49.68-.97.65Z"/>
      <path class="cls-5" d="m316.42,167.57c-.15-.57-.18-1.14.08-1.69.45.58.46,1.15-.08,1.69Z"/>
      <path class="cls-5" d="m135.76,245.77c.44.12.65.44.74.86-.49-.08-.77-.34-.74-.86Z"/>
      <path class="cls-5" d="m316.5,156.49c-.27-.55-.23-1.11-.1-1.68.56.53.53,1.09.1,1.68Z"/>
      <path class="cls-5" d="m107.03,154c.12.56.13,1.11-.09,1.65-.44-.57-.42-1.12.09-1.65Z"/>
      <path class="cls-5" d="m134.97,244.49c.51.1.75.4.65.93-.47-.13-.71-.43-.65-.93Z"/>
      <path class="cls-5" d="m256.71,281.05c.17-.38.39-.71.86-.74-.05.53-.35.75-.86.74Z"/>
      <path class="cls-5" d="m170.8,95.91c-.47.05-.95.15-1.33-.26.49-.15.97-.26,1.33.26Z"/>
      <path class="cls-5" d="m255.07,282.71c.1-.43.4-.67.79-.81.02.55-.31.75-.79.81Z"/>
      <path class="cls-5" d="m316.64,161.85c-.27-.47-.29-.93.04-1.37.25.47.29.93-.04,1.37Z"/>
      <path class="cls-5" d="m255.89,281.87c.13-.4.38-.67.79-.79-.02.51-.27.78-.79.79Z"/>
      <path class="cls-5" d="m257.59,280.3c.13-.29.33-.5.67-.52-.03.42-.26.58-.67.52Z"/>
      <path class="cls-5" d="m258.3,279.74c.05-.34.23-.56.6-.57-.05.35-.21.58-.6.57Z"/>
      <path class="cls-5" d="m132.85,241.3c.14.26.27.51.41.77-.41-.11-.43-.43-.41-.77Z"/>
      <path class="cls-5" d="m207.39,118.99c-.3,0-.43-.13-.38-.43.13.14.25.29.38.43Z"/>
      <path class="cls-5" d="m107.87,176.97c.22.16.28.34.05.54-.02-.18-.03-.36-.05-.54Z"/>
      <path class="cls-5" d="m166.83,281.44c.11.11.22.22.33.32-.26.04-.37-.07-.33-.32Z"/>
      <path class="cls-5" d="m166.39,281.04c.12.11.24.21.36.32-.26.05-.37-.06-.36-.32Z"/>
      <path class="cls-5" d="m166,280.62c.11.12.22.24.33.36-.26.02-.37-.1-.33-.36Z"/>
      <path class="cls-5" d="m165.54,280.22c.13.11.26.22.39.32-.26.05-.38-.07-.39-.32Z"/>
      <path class="cls-5" d="m165.11,279.82c.13.12.26.24.38.36-.25,0-.38-.11-.38-.36Z"/>
      <path class="cls-5" d="m164.7,279.41c.13.13.25.25.38.38-.25,0-.38-.13-.38-.38Z"/>
      <path class="cls-5" d="m164.28,279c.13.13.25.26.38.38-.25,0-.38-.13-.38-.38Z"/>
      <path class="cls-5" d="m259.56,278.58c.14-.14.27-.28.41-.42,0,.27-.14.41-.41.42Z"/>
      <path class="cls-5" d="m264.5,273.64c.14-.14.28-.28.41-.41,0,.28-.14.42-.41.41Z"/>
      <path class="cls-5" d="m249.46,287.77c.12-.13.25-.26.37-.39-.12.13-.25.26-.37.39Z"/>
      <path class="cls-5" d="m127.52,232.62c.23.07.33.21.24.45-.08-.15-.16-.3-.24-.45Z"/>
    </g>
  </g>
</svg>